<svg width="24" height="24" viewBox="0 0 24 24" fill="none" xmlns="http://www.w3.org/2000/svg">
<g clip-path="url(#clip0_2068_2018)">
<path d="M12 24C18.6274 24 24 18.6274 24 12C24 5.37258 18.6274 0 12 0C5.37258 0 0 5.37258 0 12C0 18.6274 5.37258 24 12 24Z" fill="#988430"/>
<path d="M12.0004 23.616C18.4155 23.616 23.616 18.4155 23.616 12.0004C23.616 5.58526 18.4155 0.384766 12.0004 0.384766C5.58526 0.384766 0.384766 5.58526 0.384766 12.0004C0.384766 18.4155 5.58526 23.616 12.0004 23.616Z" fill="#7A6A2A"/>
<path d="M11.9998 23.3707C18.2798 23.3707 23.3707 18.2798 23.3707 11.9998C23.3707 5.71982 18.2798 0.628906 11.9998 0.628906C5.71982 0.628906 0.628906 5.71982 0.628906 11.9998C0.628906 18.2798 5.71982 23.3707 11.9998 23.3707Z" fill="#BA9F33"/>
<path fill-rule="evenodd" clip-rule="evenodd" d="M5.24683 10.7175C5.17887 10.6554 5.10704 10.5932 5.041 10.5311C4.97496 10.469 4.90712 10.4068 4.83914 10.3448L4.63717 10.1528C4.60415 10.1197 4.5692 10.0907 4.53616 10.0575C4.50314 10.0285 4.46437 9.99544 4.43134 9.96626C4.16331 9.71192 3.89375 9.45758 3.62943 9.20312C3.90321 9.45362 4.17125 9.70232 4.44505 9.95652L4.54014 10.0518C4.57316 10.0847 4.6081 10.1138 4.64112 10.1469L4.84298 10.3332C4.91096 10.3953 4.97701 10.4575 5.04497 10.5252C5.11295 10.5929 5.17898 10.6553 5.24696 10.7172L5.24683 10.7175ZM1.68958 10.6791C1.68958 10.6791 2.6643 10.78 3.14008 10.8479C3.58078 10.9101 4.95946 11.1217 4.95946 11.1217L1.68958 10.6791ZM1.68958 10.6791C1.96337 10.7024 2.23717 10.7314 2.51097 10.7606C2.65073 10.7742 2.78474 10.7897 2.91876 10.8032L3.12447 10.8267C3.19243 10.8363 3.25849 10.846 3.32645 10.8557L4.14207 10.9858L4.54974 11.0537C4.68376 11.077 4.81777 11.1024 4.95755 11.1257C4.82353 11.1121 4.68376 11.0927 4.54974 11.0732L4.14207 11.015L3.32645 10.8946C3.25849 10.8849 3.19243 10.8712 3.12447 10.8616L2.91865 10.8379C2.78463 10.8244 2.64485 10.8049 2.51083 10.7893C2.23705 10.7564 1.96325 10.7213 1.68945 10.6787L1.68958 10.6791ZM4.86245 11.3757C4.86245 11.3757 3.82169 11.6399 3.47019 11.7408C3.12459 11.836 2.07793 12.1544 2.07793 12.1544L4.86232 11.3758L4.86245 11.3757Z" fill="#CFB66C"/>
<path fill-rule="evenodd" clip-rule="evenodd" d="M4.86252 11.377C4.63148 11.4449 4.40172 11.511 4.16734 11.5732L3.47218 11.7596C3.24114 11.8275 3.01138 11.8936 2.78098 11.9615L2.43538 12.0566C2.32082 12.0897 2.20434 12.1187 2.08594 12.1519C2.20038 12.1135 2.31698 12.0742 2.43154 12.0412L2.77714 11.9306C3.00818 11.8586 3.23794 11.7907 3.46834 11.7189C3.70322 11.6606 3.93438 11.5984 4.16926 11.5421C4.3925 11.4858 4.6275 11.4296 4.86252 11.3771V11.377ZM2.2238 12.7965C2.33822 12.7537 3.65868 12.1383 3.96548 11.9946C4.1191 11.9226 4.56556 11.7642 4.56556 11.7642L2.2238 12.7965Z" fill="#CFB66C"/>
<path fill-rule="evenodd" clip-rule="evenodd" d="M2.22377 12.7967C2.32463 12.7583 2.41985 12.7113 2.51689 12.6667L2.80425 12.5327L3.38101 12.255C3.57301 12.1638 3.75963 12.063 3.95765 11.9773C4.05865 11.9346 4.15963 11.8997 4.26049 11.8667L4.41409 11.8182C4.46645 11.8046 4.51509 11.789 4.56769 11.7754C4.37569 11.8667 4.17359 11.9444 3.98133 12.0336C3.78933 12.1288 3.59297 12.2065 3.39483 12.2919L2.80847 12.5501C2.61161 12.6298 2.41961 12.7152 2.22363 12.7967H2.22377ZM2.35177 13.3343C2.35177 13.3343 3.54779 12.6334 3.95945 12.4081C4.17499 12.2878 4.87209 11.9421 4.87209 11.9421L2.35177 13.3343Z" fill="#CFB66C"/>
<path fill-rule="evenodd" clip-rule="evenodd" d="M2.35156 13.3336C2.55342 13.2093 2.75924 13.0831 2.96508 12.955L3.27228 12.7685C3.3771 12.7064 3.4781 12.6481 3.58498 12.5861C3.6898 12.5239 3.7908 12.4618 3.89756 12.4035C3.94838 12.3722 4.00162 12.3449 4.05678 12.322L4.21986 12.2405C4.4354 12.1356 4.65096 12.0288 4.87816 11.9375C4.67234 12.0677 4.46062 12.1784 4.24904 12.2928C4.1442 12.3511 4.03732 12.4035 3.9325 12.4618C3.82766 12.52 3.72668 12.5822 3.6198 12.6385C3.51496 12.7006 3.41396 12.7589 3.30722 12.8152L2.99068 12.988L2.35182 13.3336H2.35156ZM4.86216 12.0947C4.86216 12.0947 4.11848 12.6656 3.87772 12.8481C3.63694 13.0306 2.9282 13.5433 2.9282 13.5433L4.86216 12.0947Z" fill="#CFB66C"/>
<path fill-rule="evenodd" clip-rule="evenodd" d="M9.13054 16.6998L8.75 15.9794L8.97132 15.0784L10.5499 14.4687L9.87806 13.0902L10.2101 11.6979L10.8335 10.4512L12.7597 10.1483L14.1752 8.79883L17.2315 9.02987L17.8315 12.2978L16.6761 16.4124L16.018 18.5426L13.3499 18.6436L12.1112 17.7853L10.6607 17.1794L9.13054 16.6998Z" fill="#E2CC85"/>
<path fill-rule="evenodd" clip-rule="evenodd" d="M13.81 16.675C13.81 16.675 13.441 16.844 12.8116 16.8051C12.6295 16.5604 11.3538 16.4459 11.3538 16.4459C11.3538 16.4459 11.1946 16.3974 10.913 16.5139C10.6296 16.6291 10.3616 16.6148 10.1111 16.6769C9.86055 16.739 9.61185 16.4129 9.41985 16.3449C9.22785 16.2731 8.97325 16.1003 8.97325 16.1003L8.43565 16.0478L7.35611 15.5915L5.64103 13.8828L5.17499 14.6124L5.03125 15.5153L5.54977 16.5853L6.94587 17.8571L9.66817 18.5483L11.2817 18.0729L13.3031 17.2185L13.81 16.6749V16.675Z" fill="#F1D789"/>
<path fill-rule="evenodd" clip-rule="evenodd" d="M4.13815 10.6378L4.48375 9.59125L4.89553 8.91541L6.22161 8.80469L5.82353 9.96591L4.71493 11.9388L5.17509 13.6999L4.35959 14.1076L4.10897 13.7232L3.90711 12.8417L3.89355 11.8513L4.13815 10.6378Z" fill="#F4ECB4"/>
<path fill-rule="evenodd" clip-rule="evenodd" d="M5.62513 16.605L5.37079 16.2496C5.37079 16.2496 5.30283 16.0807 5.34175 15.9331C5.38015 15.7836 5.37463 15.7739 5.35531 15.7175C5.33599 15.6612 5.17279 15.4671 5.18251 15.3C5.19211 15.1311 5.16895 15.0747 5.29311 14.9408C5.42315 14.8108 5.38437 14.5855 5.38437 14.5855L5.55333 14.6903L5.59173 14.6321C5.59173 14.6321 5.65381 14.6806 5.65381 14.7564C5.66737 14.6516 5.61105 14.1661 5.73919 14.0555C5.86731 13.9449 6.09451 14.5739 6.09451 14.5739L5.95473 13.6612L5.59543 12.7254L4.95659 11.871L4.91819 10.9292V10.8477C4.91819 10.8477 4.62495 11.2982 4.54341 11.6541C4.48517 11.8987 4.62495 12.1958 4.59589 12.5472C4.57247 12.8968 4.54341 12.8695 4.62879 13.008C4.71415 13.1465 4.92203 13.4313 4.84049 13.6372C4.76869 13.8139 4.52395 13.6896 4.52395 13.6896C4.52395 13.6896 4.47543 13.8333 4.40939 13.8857C4.38609 13.8004 4.36087 13.746 4.31429 13.6937C4.31031 13.7268 4.30071 13.7714 4.30071 13.7714C4.30071 13.7714 4.25797 13.6374 4.21521 13.4685C4.15711 13.2433 4.09489 12.9462 4.03857 12.787C4.01527 12.8783 3.95703 13.1559 3.95703 13.1559L3.99007 13.5831L4.14929 14.1695L4.30289 14.5535L4.45239 15.0234L4.58231 15.3391L4.68715 15.5798L4.77841 16.1216L5.21911 16.5876L5.45413 16.6925L5.62487 16.6051L5.62513 16.605Z" fill="#F3E19D"/>
<path fill-rule="evenodd" clip-rule="evenodd" d="M4.36925 9.78278C4.36925 9.78278 4.05271 10.3204 3.96157 10.8623C3.87043 11.4043 3.78877 11.977 3.84637 12.7148C3.90461 13.4586 4.01533 13.9148 4.10467 14.241C4.25827 14.7828 4.65611 15.5363 4.65611 15.5363L4.66967 15.5071C4.60281 15.3803 4.54943 15.2469 4.51043 15.109C4.45795 14.9032 4.43851 14.6586 4.38999 14.5478C4.34723 14.4372 4.27543 14.342 4.24049 14.2061C4.20747 14.076 4.20209 13.8702 4.10071 13.7169C4.05795 13.6547 4.00547 13.4916 3.98999 13.3285C3.97053 13.0838 3.99971 12.81 3.97643 12.5848C3.93367 12.21 3.90461 11.9557 3.94339 11.7595C3.98219 11.5633 4.18429 11.0062 4.30859 10.5635C4.39011 10.2799 4.34147 10.0411 4.49099 9.79444C4.64049 9.54982 4.73187 9.33428 4.76477 9.18476C4.80317 9.04884 4.36875 9.78278 4.36875 9.78278H4.36925Z" fill="#F2E8B0"/>
<path fill-rule="evenodd" clip-rule="evenodd" d="M5.86947 9.56641C5.86947 9.56641 5.70641 9.61505 5.62871 9.70041C5.55101 9.78195 5.51799 9.84993 5.41315 9.98777C5.30833 10.1256 5.30243 10.2383 5.21693 10.4111C5.13155 10.58 4.94313 10.8344 4.91985 10.9256C4.89655 11.0169 4.85777 11.444 4.80925 11.646C4.76649 11.848 4.85777 12.0966 4.85777 12.0966L4.96835 12.0731C4.96835 12.0731 4.96835 12.2169 5.07907 12.314C5.18967 12.4091 5.20913 11.9916 5.20913 11.9916L5.62269 10.5955L6.24593 10.1722L6.31389 9.83047L5.86921 9.56641H5.86947Z" fill="#F5EEC0"/>
<path fill-rule="evenodd" clip-rule="evenodd" d="M6.17265 10.2005C6.17265 10.2005 5.87941 10.2198 5.73579 10.3248C5.67755 10.3674 5.65425 10.4023 5.59217 10.4548C5.47761 10.5499 5.36101 10.6374 5.30481 10.762C5.24261 10.8862 5.17463 11.0746 5.12805 11.4299C5.10859 11.5794 5.10859 11.7173 5.09501 11.8377C5.07557 12.0008 5.04651 12.1309 5.06199 12.2217C5.08145 12.4081 5.27371 12.5053 5.29239 12.7168L5.69047 12.515L6.06525 11.0372L6.86141 10.538L6.41085 10.0332L6.17213 10.1996L6.17265 10.2005Z" fill="#E6DB9D"/>
<path fill-rule="evenodd" clip-rule="evenodd" d="M4.07241 20.1516C4.07407 20.137 4.07573 20.1224 4.07739 20.1074C4.13551 19.6083 4.14537 19.2299 4.18799 18.993C4.25007 18.6571 4.29281 18.5322 4.28309 18.4065C4.26953 18.2046 4.25403 18.057 4.27349 17.9016C4.30255 17.6958 4.50453 17.4512 4.49877 17.2822C4.49481 17.1482 4.42683 17.0609 4.36859 16.9794C4.31035 16.8979 4.26377 16.8299 4.26377 16.8299C4.26377 16.8299 4.66185 16.5561 4.65801 15.4531C4.66613 15.4554 4.67395 15.4587 4.68129 15.4629L4.87739 16.02L5.01141 16.1831L5.52597 17.1423L6.18811 17.7852L7.16667 18.4433L7.78031 19.1111L7.84239 20.8918L7.04047 21.9326L6.90913 22.1704C5.86577 21.6466 4.90901 20.9656 4.07227 20.1516H4.07241Z" fill="#E5CB7A"/>
<path fill-rule="evenodd" clip-rule="evenodd" d="M6.52246 21.8546C6.52246 21.8546 6.53604 21.6332 6.71856 21.4894C6.74774 21.538 6.76708 21.5848 6.76132 21.6196C6.79434 21.5614 7.02538 21.1886 7.54774 21.0914C8.07012 20.9964 8.19632 20.6158 8.19632 20.6158L9.30492 19.608L10.5729 18.441L12.1147 17.8992L12.8352 17.7224C12.8352 17.7224 12.8487 17.7749 12.8216 17.8914C12.9555 17.8818 13.2526 17.8138 13.5613 17.705C13.6856 17.6565 13.8022 17.6371 13.8643 17.7012C13.9556 17.7866 13.9691 17.9886 13.9749 18.1089C14.1244 18.0759 14.2972 17.9322 14.4357 17.9458C14.6571 17.9691 14.8532 18.2293 15.0785 18.2293C15.3756 18.2293 15.5095 18.0468 15.7173 17.9031C15.8416 17.8177 16.0202 17.7111 16.1212 17.639C16.362 17.4622 18.9095 16.6836 18.9095 16.6836L19.8027 16.7418L19.9465 17.7011L19.8697 20.2086C19.8602 20.2176 19.8507 20.2272 19.8411 20.2362L15.7799 22.3574L10.1505 23.2204C8.88948 23.0142 7.67258 22.5958 6.55164 21.9824L6.52284 21.8544L6.52246 21.8546Z" fill="#D8C173"/>
<path fill-rule="evenodd" clip-rule="evenodd" d="M4.41406 20.4687C4.49406 20.3013 4.566 20.1615 4.57868 20.1113C4.58866 20.2123 4.60696 20.4335 4.64382 20.6689C4.56642 20.6031 4.48984 20.5363 4.41406 20.4685V20.4687Z" fill="#F1D789"/>
<path fill-rule="evenodd" clip-rule="evenodd" d="M8.52629 22.8302L9.25435 22.6278L9.31643 22.6472C9.31643 22.6472 9.34945 22.6668 9.34945 22.7326C9.44071 22.6802 9.51841 22.6898 9.57473 22.655C9.60379 22.7172 9.63285 22.923 9.76111 22.9482C9.89499 22.9774 10.0387 22.89 10.1844 22.7794C10.328 22.6648 10.4916 22.521 10.6154 22.4628C10.6608 22.5464 10.701 22.6326 10.7358 22.721C10.8989 22.591 11.1824 22.0628 11.5863 22.0724C11.703 21.7966 11.898 21.561 12.1472 21.3948C12.5219 21.1404 12.7568 21.121 13.0501 21.1442C13.1665 20.993 13.3101 20.8646 13.4734 20.7656C13.5219 20.7852 13.6559 20.8666 13.8229 20.789C13.9919 20.7114 14.1821 20.4104 14.4326 20.3716C14.5676 20.353 14.7048 20.3818 14.821 20.453C14.821 20.453 15.5506 19.7287 16.054 19.4879C16.0345 19.4297 15.9957 19.2103 16.5859 18.7248C16.619 18.754 16.5957 18.8355 16.619 18.84C16.6286 18.84 16.7726 18.7779 16.9548 18.638C17.1801 18.4692 17.4499 18.2924 17.613 18.2439C17.9202 18.1526 18.2461 18.339 18.2461 18.339C18.2738 18.3196 18.3047 18.3051 18.3374 18.2963C18.4149 18.2827 18.4713 18.273 18.514 18.2579C18.5102 18.3588 18.5665 18.5316 18.514 18.6812C18.5748 18.7153 18.6392 18.7427 18.706 18.7627C18.6731 18.8345 18.6012 19.017 18.4809 19.1044C18.5817 19.153 18.5953 19.2093 18.739 19.258C18.6808 19.3396 18.5854 19.4795 18.5429 19.5652C18.5002 19.6565 18.3467 20.0352 18.2787 20.1788C18.2069 20.3226 18.1099 20.5866 18.0632 20.6396C18.0165 20.6926 17.8476 20.9172 17.7176 21.0278C17.8328 20.985 18.3041 20.8414 18.504 20.787C18.4445 20.8744 18.1428 21.322 17.8528 21.7524C15.0434 23.4362 11.6452 23.8296 8.52539 22.8322L8.52629 22.8302Z" fill="#E0CD81"/>
<path fill-rule="evenodd" clip-rule="evenodd" d="M6.22111 10.1472C6.22111 10.1472 6.05227 10.1472 6.01925 10.1704C5.98623 10.1937 6.18821 10.2424 6.25029 10.2657C6.31237 10.289 6.44639 10.3957 6.48133 10.4812C6.51435 10.5628 7.69489 11.0384 7.69489 11.0384L8.52983 10.9957L8.81771 10.598L8.27013 10.1184L8.65413 8.98633L8.14545 9.06787L6.92215 9.79747L6.30853 10.0325L6.22111 10.1472Z" fill="#DFC57C"/>
<path fill-rule="evenodd" clip-rule="evenodd" d="M8.05432 10.5233C8.07888 10.5631 8.12278 10.5867 8.16952 10.5854C8.34232 10.5854 8.50142 10.6281 8.56746 10.7154C8.67818 10.8553 8.985 11.3019 8.985 11.3019L9.71896 11.566L9.76632 10.7017L8.9644 10.1445L8.05176 10.4804V10.5232H8.0538L8.05432 10.5233Z" fill="#E5CC7C"/>
<path fill-rule="evenodd" clip-rule="evenodd" d="M7.91061 10.8428C7.91061 10.8428 8.04449 10.8525 8.21345 10.7903C8.38241 10.7281 8.66005 10.5942 8.78049 10.6467C8.94933 10.7185 8.91437 10.9438 9.09703 11.1459C9.20763 11.2702 9.40961 11.2663 9.52417 11.4004C9.63873 11.5344 10.0329 11.4722 10.0329 11.4722L10.1824 12.2786L9.58241 13.0476L9.38619 14.0029H8.57493L7.83381 13.7088L7.46875 12.8256L7.65127 11.9325L7.91061 10.8428Z" fill="#D2C281"/>
<path fill-rule="evenodd" clip-rule="evenodd" d="M9.47927 10.8812C9.49939 10.8874 9.52029 10.8906 9.54135 10.8909C9.51805 10.9104 9.46941 10.953 9.48887 11.0637C9.50831 11.1744 9.57039 11.3142 9.51805 11.3996C9.55983 11.4453 9.59101 11.4996 9.60931 11.5588C9.64233 11.654 9.65207 11.7413 9.86749 11.755C9.83639 11.7742 9.80773 11.797 9.78211 11.823C9.78211 11.823 9.93161 11.953 10.0074 12.0734C10.0849 12.07 10.2908 12.006 10.2908 12.006L10.3335 12.0352L10.4248 11.9968C10.4248 11.9968 10.3394 11.9638 10.4015 11.7561C10.4597 11.5735 10.5122 11.5833 10.5167 11.5697C10.5212 11.5561 10.5594 11.3639 10.5594 11.2862C10.5885 11.1853 10.6118 10.8785 10.6118 10.8785L10.5497 10.2009L10.2003 9.98914L9.91613 9.71484L9.64809 10.2197L9.47159 10.3957L9.45801 10.8325L9.47927 10.8812Z" fill="#E2C270"/>
<path fill-rule="evenodd" clip-rule="evenodd" d="M10.3203 10.3139C10.3203 10.3139 10.3824 10.4906 10.4058 10.6265C10.4141 10.6001 10.4187 10.5726 10.4194 10.545C10.4194 10.545 10.4679 10.813 10.4775 10.9237C10.497 10.9198 10.5159 10.914 10.5203 10.9333C10.5246 10.9526 10.5689 11.1683 10.5587 11.2886C10.6395 11.1553 10.7514 11.0434 10.8848 10.9625C10.9625 10.9139 11.0538 10.8615 11.149 10.8575C11.2985 10.8537 11.4072 10.9528 11.5859 10.9528C12.0168 10.9528 12.4072 10.6362 12.6946 10.5392C12.9062 10.4673 13.0887 10.4149 13.2168 10.2983C13.279 10.246 13.3898 10.1295 13.4906 9.95655C13.6246 9.72615 13.7644 9.52557 13.9043 9.50035C13.841 9.51199 13.7766 9.51653 13.7123 9.51391C13.7123 9.51391 13.7551 9.47117 13.8275 9.41293C13.9 9.35469 13.9868 9.28287 14.1109 9.28287C14.3324 9.28287 14.4429 9.31577 14.5672 9.31577C14.6915 9.31193 14.7633 9.28287 14.7633 9.28287C14.7633 9.28287 14.8935 9.37415 15.1866 9.37415C15.4799 9.37799 15.676 9.40319 15.8294 9.41689C15.9829 9.43059 16.4973 9.37415 16.6449 9.37849C16.7412 9.38221 16.8356 9.40533 16.9227 9.44647L16.4469 8.06407L14.7379 6.57031L13.7204 7.29069L12.1552 8.85575L10.6407 9.41689L10.3242 9.77223V10.3139H10.3203Z" fill="#CCB360"/>
<path fill-rule="evenodd" clip-rule="evenodd" d="M13.719 9.52194C13.719 9.52194 13.7617 9.4793 13.8334 9.42106C13.9051 9.36282 13.9928 9.2909 14.1169 9.2909C14.3383 9.2909 14.449 9.32392 14.5733 9.32392C14.6976 9.32008 14.7694 9.2909 14.7694 9.2909C14.7694 9.2909 14.8997 9.38202 15.1927 9.38202C15.4859 9.38586 15.682 9.41108 15.8355 9.42466C15.9889 9.43822 16.5034 9.38202 16.651 9.38626C16.7472 9.38988 16.8416 9.413 16.9286 9.45422L16.713 8.83086L16.4627 8.35522L15.748 7.57262C15.748 7.57262 14.8904 7.06778 14.8839 7.06394C14.8801 7.0601 14.5868 6.98242 14.5868 6.98242L13.8101 7.4523L13.1054 9.27566L13.0918 9.65966L13.548 9.87522C13.6625 9.68322 13.7889 9.52962 13.9073 9.51016C13.8004 9.5218 13.7189 9.5218 13.7189 9.5218L13.719 9.52194Z" fill="#D5B457"/>
<path fill-rule="evenodd" clip-rule="evenodd" d="M13.7085 9.65275C13.6405 9.65659 13.5843 9.64303 13.5687 9.59451C13.5105 9.43145 13.4639 9.40815 13.4151 9.40815C13.3663 9.40815 13.3005 9.51299 13.2615 9.52259C13.2225 9.53219 13.1761 9.40227 13.1761 9.40227L13.1334 9.38281C13.1334 9.38281 12.8829 9.54587 12.7062 9.73813C12.5296 9.93039 12.2402 10.2567 12.1101 10.3148C11.9801 10.3729 11.5334 10.3925 11.3805 10.4255C11.2277 10.4585 11.0582 10.5692 11.0349 10.5945C11.0116 10.6197 11.103 10.6468 11.1166 10.672C11.1302 10.6953 10.967 10.6856 10.9534 10.7104C10.9438 10.7299 10.9918 10.8405 11.0156 10.8968C11.0573 10.8761 11.103 10.8648 11.1495 10.8638C11.299 10.8599 11.4078 10.959 11.5864 10.959C12.0175 10.959 12.4077 10.6425 12.6951 10.5453C12.9068 10.4735 13.0893 10.421 13.2175 10.3045C13.2795 10.2522 13.3903 10.1356 13.4913 9.96277C13.565 9.84437 13.6369 9.73365 13.7089 9.65211L13.7085 9.65275Z" fill="#D2B257"/>
<path fill-rule="evenodd" clip-rule="evenodd" d="M7.52653 19.2627C7.52653 19.2627 7.48813 19.119 7.13229 18.7482C7.03131 18.6433 6.96922 18.5562 6.90124 18.4938C6.73229 18.3345 6.63322 18.2918 6.51291 18.2006C6.24883 18.0045 5.96146 18.0045 5.74016 17.7637C5.51884 17.523 5.26093 17.0629 5.08173 16.5928C4.90509 16.1229 4.85645 15.9734 4.85645 15.9598C4.85645 15.9462 4.90508 15.855 4.96716 15.8686C5.02924 15.8821 5.02925 16.0024 5.04487 16.0316C5.07579 16.0793 5.11087 16.1241 5.14971 16.1655C5.24097 16.2705 5.37101 16.3959 5.43707 16.583C5.42349 16.4238 5.36909 16.2472 5.36909 16.2472C5.36909 16.2472 5.71084 16.4627 6.00205 16.6879C6.29531 16.9132 6.41562 16.9909 6.50125 17.1345C6.58688 17.2781 6.7886 17.6568 6.88524 17.7676C6.98188 17.8783 8.30604 18.2957 8.30604 18.2957L8.93595 18.7653L9.24864 19.4508L9.00391 19.8348L8.53402 19.9358L7.77089 19.594L7.52653 19.2626V19.2627Z" fill="#D2B159"/>
<path fill-rule="evenodd" clip-rule="evenodd" d="M5.83105 16.9016C5.83105 16.9016 5.99028 17.156 6.37863 17.3967C6.72819 17.6084 7.28153 17.8007 7.77485 17.9153C8.05825 17.9832 8.34177 18.0356 8.59609 18.0395C9.28153 18.0491 9.75336 17.8532 10.3379 17.7891C10.6545 17.756 11.0428 17.7308 11.4467 17.6355C11.9651 17.5112 12.2719 17.3713 12.6894 17.1747C12.9923 17.0349 13.27 16.93 13.4952 16.796C13.8117 16.6097 14.0428 16.4019 14.3108 16.3398C14.2778 16.4311 14.2428 16.5942 13.9788 16.7631C14.1185 16.7592 14.3108 16.7496 14.3108 16.7496C14.3108 16.7496 14.1244 16.8602 13.7962 17.1087C13.5943 17.2623 13.3263 17.5223 13.0526 17.6951C12.8758 17.8058 12.6835 17.8871 12.5573 17.9534C12.2501 18.1224 12.1262 18.2077 11.9244 18.4142C11.9962 18.4104 12.0021 18.4142 12.0021 18.4142C12.0021 18.4142 11.7476 18.4472 11.5652 18.5443C11.5268 18.5443 11.4602 18.5307 11.3438 18.5637C11.2525 18.5928 11.132 18.6589 11.0079 18.6938C10.8311 18.7462 10.773 18.7229 10.773 18.7229L10.8021 18.7812C10.8021 18.7812 10.5717 18.7772 10.4949 18.785C10.5084 18.7889 10.5046 18.7947 10.5046 18.7947C10.4911 18.797 10.4781 18.8016 10.4662 18.8083C10.4292 18.8323 10.3886 18.85 10.3459 18.8607C10.3226 18.8645 10.3031 18.8645 10.2739 18.8704C10.2837 18.8937 10.3594 19.024 10.3944 19.1008C10.3653 19.1203 9.92833 19.4504 9.92833 19.4504C9.94187 19.4717 9.95295 19.4945 9.96135 19.5183C9.97492 19.561 9.98081 19.6232 9.99437 19.6522C10.0273 19.7105 10.0467 19.7202 10.0467 19.7202C10.0467 19.7202 9.99437 19.7299 9.90297 19.7532C9.82541 19.7727 9.73018 19.8056 9.59577 19.825C9.55455 19.8304 9.51305 19.8336 9.47149 19.8347C9.49095 19.8775 9.57633 20.0406 9.41901 20.2288C9.26169 20.4172 9.21319 20.4446 9.16467 20.5648C9.14025 20.5464 9.11425 20.5302 9.08697 20.5162C9.03463 20.493 8.9627 20.4582 8.93747 20.4114C8.92278 20.4736 8.90331 20.5346 8.87923 20.594C8.83073 20.724 8.75891 20.8522 8.74535 20.9492C8.69287 20.891 8.59585 20.7764 8.46183 20.7998C8.32782 20.823 8.22105 21.0056 8.19777 21.058C8.19777 21.025 8.17447 20.9998 8.16871 21.0386C8.16473 21.0814 8.09101 21.5278 7.67937 21.889C7.67553 21.7978 7.67553 21.5958 7.66579 21.5298C7.62739 21.5682 7.58042 21.625 7.30073 21.7454C7.02696 21.8658 7.07033 21.9862 7.07033 21.9862C7.07033 21.9862 7.04705 21.7942 7.19463 21.592C7.34413 21.39 7.43539 21.2948 7.43539 21.2794C7.43297 21.2636 7.42625 21.2488 7.41594 21.2366C7.39649 21.2172 7.35769 21.1938 7.35769 21.1784C7.38099 21.1688 7.61203 21.058 7.59847 20.8288C7.58489 20.6232 7.49761 20.5162 7.43539 20.4406C7.42579 20.4308 7.52679 20.359 7.51309 20.3358C7.50337 20.3222 7.37922 20.2308 7.3636 20.1822C7.36726 20.1532 7.37377 20.1246 7.38305 20.0968C7.39661 20.054 7.40634 20.0248 7.4025 19.9958C7.39278 19.9473 7.34029 19.8132 7.32481 19.7997C7.33837 19.8035 7.43539 19.7997 7.43539 19.7997C7.43539 19.7997 7.35783 19.6754 7.34413 19.6171C7.33043 19.5589 7.30138 19.4054 7.2859 19.3764C7.31892 19.3802 7.40045 19.386 7.40045 19.3764C7.40442 19.3472 7.32865 19.2987 7.36205 19.2612C7.38535 19.265 7.43001 19.2845 7.47266 19.3389C7.44936 19.2767 7.41058 19.1563 7.3289 19.1078C7.3673 19.0943 7.49785 19.0592 7.61241 19.1272C7.72697 19.1951 7.76602 19.2902 7.76602 19.2902C7.76602 19.2902 7.83399 19.3427 7.93895 19.4204C8.05927 19.5155 8.21262 19.6508 8.45736 19.7466C8.50984 19.7757 8.64371 19.7757 8.74087 19.7563C8.78317 19.7462 8.82373 19.7299 8.86119 19.7078C8.87471 19.6998 8.88905 19.6933 8.90393 19.6883C8.88307 19.6464 8.85905 19.6062 8.83213 19.5679C8.86515 19.5679 8.90393 19.5718 8.90393 19.5718C8.90393 19.5718 8.92723 19.5194 8.82241 19.4182C8.84569 19.3949 8.87489 19.3798 8.87489 19.3405C8.84185 19.3367 8.78361 19.2882 8.77005 19.2687C8.78937 19.2552 8.81857 19.2105 8.85159 19.1969C8.82241 19.1736 8.75059 19.0765 8.71757 19.0669C8.74911 19.0552 8.77965 19.0409 8.80884 19.0241C8.80884 19.0241 8.64577 18.9814 8.59329 18.9464C8.54081 18.908 8.46323 18.8416 8.41665 18.8221C8.36801 18.8027 8.28263 18.7931 8.24769 18.7542C8.28057 18.7639 8.33305 18.7542 8.37197 18.7542C8.40103 18.7542 8.41473 18.758 8.42434 18.758C8.4205 18.7444 8.4205 18.7153 8.49625 18.7057C8.53271 18.7002 8.56807 18.689 8.60109 18.6726C8.60109 18.6726 8.52915 18.6688 8.44749 18.5911C8.36583 18.5134 8.29799 18.4513 8.25139 18.4416C8.20289 18.4319 8.11161 18.4746 8.05529 18.4707C7.97762 18.4611 7.94458 18.4221 7.94458 18.4221C7.94458 18.4221 7.68641 18.4454 7.11361 18.096C6.61837 17.793 6.40281 17.5251 6.40281 17.5251C6.35647 17.5083 6.31167 17.4875 6.26893 17.4629C6.08257 17.3659 5.82425 17.1639 5.83207 16.8997L5.83105 16.9016Z" fill="#C2A44D"/>
<path fill-rule="evenodd" clip-rule="evenodd" d="M12.9743 5.24671C13.0192 5.26131 13.0591 5.28823 13.0895 5.32441C13.1807 5.42925 13.239 5.62725 13.0312 5.83897C13.1128 5.86803 13.1464 5.87737 13.2176 5.86803C13.1458 5.95353 12.9827 6.13605 12.973 6.29529C12.9632 6.42533 13.0448 6.46425 13.0448 6.46425C13.0448 6.46425 12.9205 6.60787 12.9147 6.84825C12.9734 6.78205 13.0377 6.72099 13.1067 6.66573C13.2505 6.55117 13.4485 6.42111 13.5825 6.33957C13.5807 6.37375 13.5853 6.40797 13.5961 6.44045C13.5961 6.44045 13.8464 6.23461 14.0569 6.32601C14.152 6.36877 14.1092 6.50265 14.1092 6.50265C14.1092 6.50265 14.2394 6.45413 14.3307 6.54541C14.4219 6.63667 14.551 6.87205 14.6171 6.96333C14.6462 7.00607 14.722 7.08761 14.7995 7.21381C14.9055 7.39051 14.994 7.57713 15.0637 7.77101C15.0676 7.67001 15.0928 7.51283 15.3803 7.61177C15.6676 7.71277 15.9938 7.92447 16.2676 8.34137C16.5414 8.75827 16.6092 9.22893 16.7471 9.40813C16.8868 9.58093 17.0306 9.86829 17.0403 9.98873C17.05 10.1092 16.9976 10.4974 17.2849 11.5479C17.3664 11.2218 17.4907 10.4974 17.4907 10.4974L17.5587 9.85855L17.6364 7.88185L15.5723 6.16703L13.9587 4.99609L12.9082 5.09709L12.9741 5.24659L12.9743 5.24671Z" fill="#CAA13E"/>
<path fill-rule="evenodd" clip-rule="evenodd" d="M16.81 8.18816C16.81 8.18816 16.7809 7.99616 16.2955 7.66976C15.81 7.34746 15.4314 7.34746 15.0819 7.07368C14.8139 6.85812 14.5343 6.36288 14.3523 6.19982C14.1755 6.03866 14.1465 5.57262 14.1465 5.57262L14.7426 5.07342L15.6291 3.792L16.3786 2.9668L16.7377 3.466L17.2369 4.05236L17.5146 5.22906L17.6155 6.95144L16.8091 8.1883L16.81 8.18816Z" fill="#B59544"/>
<path fill-rule="evenodd" clip-rule="evenodd" d="M17.4095 10.2525C17.4242 9.99126 17.392 9.72954 17.3143 9.47972C17.1863 9.08164 16.9066 8.37482 16.7767 8.11012C16.7242 7.81688 16.7631 7.79358 16.8195 7.76056C16.8758 7.72752 17.0875 7.60696 17.2035 7.18392C17.3194 6.76088 17.6792 6.74704 17.6792 6.74704L17.9006 6.58398L18.2366 7.42468L18.5297 8.18398L18.6209 8.76458L18.6889 9.25968L18.5297 10.3063L17.7434 11.017L17.4094 10.2525H17.4095Z" fill="#C89D3A"/>
<path fill-rule="evenodd" clip-rule="evenodd" d="M6.43652 21.9178V21.8962C6.45286 21.886 6.4673 21.873 6.47916 21.8578C6.49272 21.8384 6.50258 21.8152 6.51218 21.8094C6.53164 21.7996 6.6229 21.771 6.6714 21.7802C6.71992 21.7894 6.84818 21.8422 6.91614 21.8384C7.05592 21.8346 7.219 21.7276 7.4773 21.7764C7.86564 21.8482 7.95692 22.1122 8.1822 22.2616C8.3358 22.3666 8.49476 22.32 8.51806 22.32H8.57042C8.58014 22.32 8.65196 22.2384 8.69086 22.2424C8.76856 22.2462 8.77624 22.3104 8.82476 22.3142C8.93932 22.3278 9.16076 22.256 9.27148 22.2852C9.3381 22.306 9.39032 22.3582 9.41124 22.4248C9.43454 22.4966 9.41508 22.5878 9.35876 22.6404C9.23844 22.751 9.12388 22.8558 9.1006 22.9476C9.13022 22.9702 9.15868 22.9942 9.18584 23.0198C8.2251 22.775 7.30072 22.4048 6.43652 21.919V21.9178Z" fill="#CEB052"/>
<path fill-rule="evenodd" clip-rule="evenodd" d="M16.7764 18.0393C16.7764 18.0393 17.0792 17.6355 17.1842 17.4354C17.289 17.2292 16.8521 14.618 16.8521 14.618L17.7298 11.7424L17.7064 10.8064C17.7064 10.8064 17.7492 9.94233 17.8502 9.56755C17.9706 9.78309 18.3454 10.0433 18.4269 10.1812C18.4653 9.91699 18.5958 9.35981 18.5764 8.76562C18.6482 8.87621 18.821 9.98893 18.821 9.98893L18.9938 10.7384L19.2191 11.5345L19.4696 12.3753L19.6191 12.956L19.7045 13.0957L19.7764 13.3403L19.8444 13.6045L20.0405 14.2239L20.1557 14.7326L20.2471 15.655C20.2669 15.7256 20.2811 15.7977 20.2897 15.8705C20.2935 15.9715 20.2761 16.0297 20.2761 16.0473C20.2761 16.0648 20.3093 16.2686 20.2957 16.4221C20.2761 16.5757 20.2761 16.6959 20.1557 16.8061C20.0353 16.9163 19.9596 17.575 19.9596 17.575L19.744 17.4313C19.744 17.4313 19.7868 17.2351 19.6858 17.0566C19.5848 16.878 19.3887 16.841 19.278 16.8702C19.1674 16.8935 18.9461 16.9283 18.8742 16.9905C18.8062 17.0526 18.6393 17.2448 18.4858 17.3323C18.2938 17.4475 17.981 17.4566 17.8141 17.4953C17.6451 17.5337 17.4587 17.6489 17.2625 17.7827C17.1087 17.8823 16.9462 17.968 16.7771 18.0387L16.7764 18.0393Z" fill="#CCA847"/>
<path fill-rule="evenodd" clip-rule="evenodd" d="M16.7764 22.282C16.7764 22.282 16.7892 22.2904 16.8139 22.304C18.1934 21.6576 19.4295 20.7414 20.4491 19.6096C20.4379 19.2166 20.4235 18.8138 20.4077 18.6645C20.3747 18.348 20.3981 18.0257 20.3883 17.8393C20.3785 17.6529 20.2737 16.8937 20.2253 16.6976C20.1727 16.5015 20.0717 16.4043 20.0563 16.4043C20.0427 16.4083 19.961 16.7733 19.961 16.8651C19.961 16.9569 19.9416 17.1778 19.9416 17.2341C19.928 17.2302 19.9222 17.1957 19.9222 17.1817C19.9028 17.2302 19.8795 17.3157 19.8697 17.3254C19.86 17.3351 19.8833 17.2439 19.8697 17.2244C19.8562 17.2049 19.8313 17.2147 19.8367 17.1662C19.839 17.1374 19.8436 17.1088 19.8503 17.0808C19.8503 17.0808 19.792 17.1662 19.7494 17.3836C19.7067 17.5992 19.7067 17.6051 19.6912 17.6244C19.6776 17.6478 19.5999 17.7254 19.596 17.7546C19.5921 17.8069 19.6679 17.8594 19.6736 17.8885C19.6775 17.9371 19.6057 18.1623 19.5824 18.2725C19.5591 18.3827 19.5688 18.5986 19.544 18.7093C19.5245 18.8103 19.5056 18.8686 19.4392 18.9112C19.4877 18.9209 19.5343 18.9345 19.5343 18.9345C19.5343 18.9345 19.6022 19.2218 19.4294 19.4666C19.3673 19.552 19.3519 19.5909 19.2858 19.6686C19.1556 19.8122 19.0546 19.9758 19.0449 20.0822C19.0382 20.0508 19.0337 20.019 19.0313 19.9869C19.0313 19.9869 18.8295 20.222 18.744 20.356C18.6334 20.5288 18.4799 20.519 18.4368 20.5618C18.3936 20.6044 18.3843 20.682 18.3984 20.7442C18.36 20.7538 18.2878 20.7676 18.2392 20.917C18.2159 20.9946 18.1576 21.0706 18.0664 21.1228C17.9751 21.1752 17.8644 21.1908 17.808 21.2044C17.8566 21.218 17.876 21.218 17.8993 21.2334C17.8703 21.282 17.7362 21.3578 17.5867 21.455C17.4372 21.5462 17.3653 21.68 17.3284 21.7676C17.29 21.849 17.2333 21.9016 17.1421 21.9112C17.1805 21.9346 17.2373 21.9888 17.2664 22.0064C17.2236 22.016 17.1512 22.016 17.0217 22.1268C16.8858 22.2394 16.8392 22.2724 16.777 22.2822L16.7764 22.282Z" fill="#C39D3C"/>
<path fill-rule="evenodd" clip-rule="evenodd" d="M14.0749 23.182C14.1492 23.1298 14.2297 23.0872 14.3146 23.0548C14.6175 22.9344 14.9378 22.9112 15.064 22.8724C15.1845 22.834 15.2796 22.781 15.4291 22.752C15.4251 22.786 15.4218 22.818 15.4182 22.8482C14.9775 22.9868 14.5286 23.0982 14.0742 23.182H14.0749Z" fill="#D2BA6B"/>
<path fill-rule="evenodd" clip-rule="evenodd" d="M19.6607 15.2148C19.6607 15.2148 19.5986 15.5507 19.4879 15.7624C19.3771 15.9741 19.2575 16.2672 19.2575 16.2672C19.2582 16.2012 19.266 16.1354 19.2808 16.071C19.141 16.1526 18.8011 16.3488 18.7048 16.4361C18.6135 16.5176 18.46 16.6614 18.4212 16.7293C18.5125 16.4614 18.6076 16.2207 18.6232 16.1099C18.4835 16.2109 17.8309 16.7488 17.4912 17.1041L16.4329 17.9604C16.3108 18.0263 16.185 18.0852 16.0562 18.1368C15.8738 18.2144 15.6582 18.2804 15.499 18.3426C15.5418 18.2281 15.6096 18.127 15.7048 18.0299C15.8058 17.9348 16.1087 17.6066 16.1553 17.4539C16.198 17.2947 16.2077 17.1996 16.1514 17.0656C16.0989 17.0791 15.9786 17.085 15.8971 17.1083C15.8155 17.1316 15.7281 17.2189 15.7281 17.2189C15.7281 17.2189 15.7902 16.8636 15.9242 16.5277C15.8232 16.5316 15.6504 16.5606 15.6504 16.5606C15.6504 16.5606 15.8912 16.1568 16.3032 15.8753C16.177 15.9022 16.0536 15.9405 15.9343 15.9897C15.6936 16.0907 15.4295 16.2402 15.2334 16.3218C15.344 16.1682 16.1207 15.0597 16.5829 14.0266C17.0437 12.9956 17.2159 12.7315 17.3169 12.1782C17.3692 11.9044 17.3553 11.4998 17.3692 11.1374C17.3828 10.7781 17.4275 10.4558 17.3984 10.2402C17.5187 10.3897 17.9693 10.8111 17.9848 11.7529C17.9983 12.6946 17.5538 13.9666 17.0819 14.6519C17.1971 14.6849 17.4955 14.7238 17.8022 14.1911C18.1089 13.6583 18.1052 13.5096 18.2159 13.2882C18.2295 13.3989 18.2255 13.4377 18.2255 13.4377C18.2255 13.4377 18.6723 12.896 18.8838 12.2144C18.9266 12.5076 19.0528 12.7659 18.8547 13.3038C18.678 13.7892 18.447 13.9077 18.447 13.9077C18.447 13.9077 18.5615 13.8882 18.7304 13.7872C18.7595 13.8591 18.7538 13.9408 18.8023 13.9698C18.8508 13.9987 18.9169 14.0475 18.9266 14.0941C18.9789 14.0164 19.0605 13.9173 19.0858 13.8436C19.0664 13.9972 19.0528 14.6688 19.1242 15.0105C19.2739 14.997 19.4272 14.9872 19.532 14.7173C19.4602 14.9815 19.4602 15.1406 19.5087 15.3659C19.5883 15.3116 19.6602 15.2144 19.6602 15.2144L19.6607 15.2148Z" fill="#C0993A"/>
<path fill-rule="evenodd" clip-rule="evenodd" d="M14.6157 4.51353C14.6157 4.51353 14.4662 4.57561 14.2118 4.57561C13.9905 4.57561 14.0526 4.49023 13.707 4.49023C13.175 4.49023 11.3167 4.79743 10.9904 4.79307C10.7787 4.78923 11.7049 4.88433 11.7049 4.88433L14.072 4.91737L14.5477 4.87897L14.7245 4.51929L14.6157 4.51353Z" fill="#A88F33"/>
<path fill-rule="evenodd" clip-rule="evenodd" d="M8.47794 9.14041C8.47794 9.14041 8.17496 9.37145 8.04684 9.54823C7.9187 9.72499 7.85074 9.84135 7.70508 9.98509C7.73926 9.98639 7.77342 9.98181 7.80606 9.97151C7.80606 9.97151 7.80606 10.0099 7.78276 10.02C7.82354 10.0155 7.8642 10.0296 7.89336 10.0584C7.8506 10.0817 7.73412 10.1983 7.8254 10.3362C7.89336 10.441 8.0371 10.4506 8.0371 10.4506C8.0371 10.4506 8.00408 10.5458 8.14194 10.5361C8.43902 10.5225 8.77106 10.3924 8.9244 10.4254C9.078 10.4638 9.1653 10.4779 9.27396 10.6663C9.38916 10.8527 9.48952 10.8818 9.48952 10.8818C9.48952 10.8818 9.5575 10.7089 9.542 10.4507C9.59774 10.3116 9.62862 10.1637 9.63326 10.0139L9.53228 9.27021L9.09156 8.71289L8.5207 9.02943L8.47794 9.14003V9.14041Z" fill="#E3C571"/>
<path fill-rule="evenodd" clip-rule="evenodd" d="M9.01953 9.02978C9.01953 9.02978 9.06229 9.13076 9.24097 9.14036C9.22151 9.18312 9.22151 9.189 9.22741 9.2219C9.23125 9.25492 9.23701 9.30344 9.23701 9.30344C9.25667 9.29392 9.27447 9.2809 9.28949 9.26504C9.29921 9.30778 9.27975 9.37562 9.28949 9.42426C9.29549 9.45384 9.30525 9.48254 9.31855 9.50964C9.32137 9.503 9.32463 9.49654 9.32827 9.49032C9.33211 9.48058 9.36667 9.59514 9.46229 9.68232C9.46221 9.66892 9.46551 9.6557 9.47189 9.64392C9.47335 9.66826 9.48141 9.69176 9.49519 9.71188C9.48803 9.70848 9.48149 9.70388 9.47585 9.69832C9.47585 9.69832 9.48545 10.0055 9.53793 10.1644C9.54671 10.1541 9.55451 10.143 9.56123 10.1313C9.56123 10.1217 9.55739 10.2168 9.54767 10.2849C9.53409 10.3529 9.54383 10.448 9.54383 10.448C9.57883 10.4204 9.61731 10.3976 9.65825 10.38C9.71649 10.3566 9.81185 10.2848 9.86997 10.1256C9.90367 10.0354 9.92967 9.94252 9.94767 9.84794C9.96643 9.8841 9.97939 9.92296 9.98607 9.96314C9.99003 10.0117 10.0813 9.98644 10.0813 9.98644L10.1008 9.77474L10.216 9.29512L10.3208 8.99802L10.8256 8.21172L11.7378 7.50926L12.5339 7.69178L13.2057 6.77914L12.0484 6.08398L10.9532 6.19854L9.95931 7.57518L9.16327 8.82382L9.01953 9.02964V9.02978Z" fill="#D8B65B"/>
<path fill-rule="evenodd" clip-rule="evenodd" d="M14.7553 7.03688C14.7553 7.03688 14.6873 7.05046 14.4912 7.15208C14.2952 7.25372 14.1592 7.28598 14.0834 7.43548C14.0077 7.58498 14.0019 7.70352 14.0019 7.70352C14.0019 7.70352 14.1359 7.64528 14.2136 7.62582C14.2952 7.60648 14.3864 7.61224 14.3767 7.64528C14.3674 7.66792 14.3544 7.68888 14.3383 7.70736C14.3383 7.70736 14.4919 7.70352 14.4878 7.77928C14.4837 7.85506 14.4587 7.93852 14.4297 7.97538C14.4005 8.01378 14.2802 8.07062 14.2666 8.11528C14.2336 8.20656 14.2802 8.2104 14.2626 8.28412C14.2491 8.35606 14.1851 8.49584 13.9753 8.74044C13.7597 8.98518 13.6681 9.15798 13.6681 9.15798C13.6681 9.15798 13.5632 8.96188 13.5088 8.79292C13.4704 8.81224 13.2642 8.9268 13.2642 8.9268L12.7865 7.2628L12.7961 7.15208C12.7961 7.15208 12.8389 7.09974 12.8486 7.00258C12.7768 6.97928 12.7671 6.95984 12.6719 6.8687C12.5766 6.77756 12.4991 6.66672 12.34 6.59094C12.3167 6.54818 12.2875 6.49008 12.171 6.46664C12.0545 6.44322 11.9846 6.42402 11.9846 6.42402C11.9846 6.42402 12.0467 6.4006 12.0759 6.35208C12.004 6.36182 11.9458 6.38512 11.7885 6.38128C11.6293 6.3773 11.6118 6.37154 11.5245 6.38512C11.4372 6.39868 11.3325 6.4376 11.2934 6.30358C11.2507 6.27056 11.1594 6.29974 11.0817 6.41416C11.004 6.5286 10.9769 6.62 10.8274 6.66466C10.8169 6.73056 10.7938 6.79384 10.7594 6.85104C10.7167 6.92296 10.6487 6.99478 10.5574 7.10152C10.4137 7.27048 10.437 7.54812 10.2079 7.75984C9.97681 7.97142 10.2463 7.17334 10.2463 7.17334L10.6152 6.29014L11.6656 5.26294L13.2968 5.15234L13.456 5.99714L14.2521 6.27094L14.7551 7.03792L14.7553 7.03688Z" fill="#D3AE4D"/>
<path fill-rule="evenodd" clip-rule="evenodd" d="M15.0139 7.22409L14.3284 6.23581L13.8488 5.86679C13.8488 5.86679 13.507 5.23779 13.4837 5.21833C13.4643 5.20477 13.142 5.16983 12.9362 5.15625L12.9746 5.25137C13.0195 5.26595 13.0594 5.29287 13.0898 5.32905C13.181 5.43389 13.2393 5.63191 13.0315 5.84361C13.1131 5.87267 13.1467 5.88201 13.2179 5.87267C13.1461 5.95817 12.983 6.14071 12.9733 6.29993C12.9636 6.42999 13.0451 6.46877 13.0451 6.46877C13.0451 6.46877 12.9208 6.61251 12.915 6.85277C12.9737 6.78659 13.038 6.72551 13.107 6.67025C13.2508 6.55505 13.4488 6.42551 13.5828 6.34397C13.581 6.37819 13.5856 6.41245 13.5964 6.44497C13.5964 6.44497 13.8468 6.23913 14.0572 6.33041C14.1523 6.37315 14.1095 6.50717 14.1095 6.50717C14.1095 6.50717 14.2397 6.45865 14.331 6.54993C14.4222 6.64119 14.5523 6.87607 14.6183 6.96745C14.6474 7.01021 14.7232 7.09175 14.8007 7.21783C14.9067 7.39455 14.9952 7.58121 15.0649 7.77513C15.0688 7.69745 15.0844 7.58877 15.2185 7.58877L15.0146 7.22371L15.0139 7.22409Z" fill="#CAA13E"/>
<path fill-rule="evenodd" clip-rule="evenodd" d="M4.73836 10.0304C4.73836 10.0304 4.68984 9.91001 4.73836 9.67513C4.78688 9.44025 4.86264 9.32953 4.88786 8.98393C4.91308 8.63833 5.13836 8.20721 5.13836 8.20721L5.7616 7.92383L6.20242 8.04415L6.33248 8.63449L5.77516 8.94169C5.77516 8.94169 5.7461 9.07173 5.5888 9.17657C5.43148 9.28139 5.214 9.36293 5.16166 9.46981C5.13036 9.53525 5.10752 9.60441 5.09368 9.67563C5.09368 9.67563 4.93446 9.64261 4.83936 9.74745C4.73836 9.85433 4.7422 9.94943 4.73836 10.031V10.0304Z" fill="#F4EFC8"/>
<path fill-rule="evenodd" clip-rule="evenodd" d="M5.99611 9.87386C5.99611 9.87386 5.94363 9.90688 5.90485 9.98906C5.86645 9.92698 5.77467 9.55796 5.77083 9.22592C5.76699 8.8939 5.74715 8.8116 5.82395 8.69716C5.90075 8.58272 6.20193 8.46216 6.15919 8.25608C6.11643 8.05998 5.93775 7.97844 5.71835 8.03476C5.56475 8.07316 5.45045 8.39982 5.29121 8.56288C5.17077 8.68718 5.02715 8.66772 4.98837 8.73568C4.93589 8.82696 4.98441 8.91822 4.96891 8.97646C4.96495 8.99592 4.91643 9.10074 4.82901 9.22696C4.65237 9.48128 4.35337 9.84058 4.31445 10.1629C4.32801 9.98036 4.31841 9.97652 4.36693 9.77454L4.33775 9.72602L4.52975 9.0969L4.65403 8.5785L4.93179 7.7104L5.42101 6.82312L5.89679 6.29102L6.39189 6.32404L6.45013 7.06772L6.73365 8.46394L7.32975 9.1979L6.37435 9.84084L5.99573 9.87386H5.99611Z" fill="#EBCC73"/>
<path fill-rule="evenodd" clip-rule="evenodd" d="M6.29363 10.1379C6.29363 10.1379 6.21209 10.1574 6.18291 10.1419C6.15373 10.1264 6.12479 10.1089 6.13439 10.0894C6.14399 10.07 6.19647 10.0371 6.19647 10.0214C6.19871 9.99211 6.17723 9.96631 6.14797 9.96321C6.10329 9.95745 6.08973 9.98651 6.08973 9.98651C6.08973 9.98651 6.04697 9.95361 6.01215 9.94811C6.03275 9.94559 6.05349 9.94425 6.07423 9.94413C6.02057 9.91983 5.96365 9.90349 5.90527 9.89563C5.95379 9.86657 6.04903 9.78107 6.11111 9.78107C6.17319 9.78107 6.21209 9.77147 6.20237 9.73845C6.19263 9.70541 6.14413 9.65691 6.09177 9.63745C6.11111 9.61415 6.12479 9.57921 6.07821 9.48385C6.02957 9.38875 6.04903 9.32461 6.06463 9.30145C6.07821 9.27227 6.12671 9.21991 6.15001 9.18689C6.17331 9.15387 6.19277 9.10919 6.23155 9.08589C6.25101 9.07233 6.31309 9.04749 6.37529 9.02381C6.44327 9.00053 6.49959 8.97133 6.53837 9.00053C6.58111 9.02957 6.56167 9.06849 6.56167 9.06849C6.56167 9.06849 6.69567 9.01985 6.81599 9.08205C6.93645 9.14017 7.2297 9.17717 7.2297 9.17717L7.3348 9.38887L6.63961 9.98497L6.35225 10.1287L6.29401 10.1383L6.29363 10.1379Z" fill="#E5C66B"/>
<path fill-rule="evenodd" clip-rule="evenodd" d="M7.25807 9.16359C7.25807 9.16359 7.04251 9.30735 6.99399 9.35969C7.02305 9.36367 7.07157 9.38311 7.05211 9.41217C7.02881 9.44123 6.88903 9.54223 6.81135 9.63745C6.72981 9.73255 6.65211 9.85301 6.62497 9.91125C6.59591 9.96359 6.37447 10.1171 6.29883 10.1364C6.45807 10.1364 6.77845 9.94031 6.89877 9.94031C6.89493 9.99855 6.93179 10.0646 6.99975 10.0703C7.06773 10.0761 7.26383 10.1131 7.52789 9.95003C7.79195 9.79079 7.70465 9.67227 7.81525 9.59471C8.02695 9.45479 8.11233 9.33051 8.22881 9.25295C8.34529 9.17537 8.40559 9.15771 8.40559 9.15771C8.40559 9.15771 8.40943 9.09947 8.44399 9.10535C8.46327 9.10757 8.47973 9.12029 8.48673 9.13839C8.48673 9.13839 8.68871 8.99463 8.94753 8.95585C8.94149 8.95315 8.93667 8.94833 8.93397 8.94229C8.93397 8.94229 8.95329 8.93255 8.95727 8.92283C8.95727 8.92283 8.97083 8.90337 8.98055 8.91311C8.99029 8.92283 9.00385 8.99463 9.02331 9.02383C9.06607 9.00437 9.14759 8.82183 9.14759 8.82183L9.34383 8.26069V7.74805L9.19023 7.77723L8.03823 8.26645L7.33909 8.99079L7.25755 9.16359H7.25807Z" fill="#E6BD62"/>
<path fill-rule="evenodd" clip-rule="evenodd" d="M10.5744 6.64862C10.6367 6.6335 10.6965 6.60926 10.7517 6.57668C10.7284 6.63888 10.7284 6.70686 10.6274 6.85444C10.5264 7.00202 10.5226 7.0234 10.441 7.17674C10.3595 7.33598 10.3498 7.5651 10.2721 7.66596C10.3069 7.64904 10.3443 7.63792 10.3827 7.63306C10.3827 7.63306 10.3051 7.70102 10.2721 7.77284C10.239 7.84464 10.1808 7.99414 10.0372 8.08554C9.89358 8.17694 9.71092 8.23504 9.51482 8.4506C9.3186 8.66218 9.11674 8.93022 9.01562 9.0266C9.0681 8.93534 9.13993 8.7528 9.15937 8.63248C9.17883 8.51216 9.1554 8.3683 9.18842 8.20918C9.22144 8.05008 9.22145 7.9354 9.38043 7.65764C9.53941 7.37988 9.81152 6.41488 9.81152 6.41488L10.3979 6.22852L10.5747 6.64798L10.5744 6.64862Z" fill="#B6933F"/>
<path fill-rule="evenodd" clip-rule="evenodd" d="M10.1511 6.2932C10.1511 6.2932 9.97446 6.54754 9.92594 6.77282C9.87744 6.9981 9.92198 6.97864 9.89292 7.08936C9.87554 7.15688 9.87554 7.22768 9.89292 7.29518C9.9541 7.19664 10.0379 7.11406 10.1373 7.0543C10.3043 6.95342 10.4402 6.8815 10.5213 6.79612C10.6028 6.70486 10.6708 6.55534 10.8474 6.44078C10.7756 6.43106 10.6746 6.39804 10.6554 6.40238C10.7274 6.32086 10.9428 6.19656 11.1602 6.04706C11.3758 5.89346 11.3622 5.8315 11.7118 5.67816C11.5972 5.69762 11.5428 5.66844 11.4476 5.67816C11.486 5.59662 11.6204 5.55772 11.7548 5.42382C11.8892 5.28994 11.6694 5.0918 11.6694 5.0918L10.6454 5.71118L10.1503 6.29372L10.1511 6.2932Z" fill="#C49937"/>
<path fill-rule="evenodd" clip-rule="evenodd" d="M7.37305 5.83077L7.39635 5.64439L7.68959 5.17451L7.99641 4.34929V3.22109L7.97311 2.56869L8.02163 2.14141L8.05849 2.00561L8.09741 1.95312L8.34777 2.08316L8.69351 2.55307L8.72653 3.45995L8.39053 4.89099L7.43129 5.93765L7.37305 5.83077Z" fill="#DFC068"/>
<path fill-rule="evenodd" clip-rule="evenodd" d="M8.13571 1.9013C8.13571 1.9013 7.98211 1.90527 7.94935 2.54411C7.91657 3.18297 7.90071 3.51883 7.87741 3.83537C7.85411 4.15193 7.79985 4.34405 7.77257 4.53055C7.74531 4.71705 7.72983 4.97125 7.64253 5.12665C7.60413 5.19845 7.52209 5.42373 7.32983 5.59269C7.11427 5.77905 6.79223 5.90923 6.74345 5.91897C6.65795 5.93829 6.22493 5.98105 6.04829 6.07819C5.98621 6.11121 5.87933 6.15001 5.76093 6.26073C5.52593 6.47231 5.21335 6.85093 4.98807 7.30725C4.64247 7.98885 4.29688 9.91307 4.29688 9.91307L4.37458 9.78303C4.37458 9.78303 4.38429 9.61023 4.55709 9.30725C4.72605 9.00441 4.67753 8.66457 4.91241 8.08395C5.00369 7.86265 5.11825 7.57529 5.25801 7.33055C5.47945 6.93247 5.74737 6.59071 6.01731 6.40433C6.45801 6.10149 6.94353 6.03545 6.94353 6.03545L7.46589 5.68985C7.46589 5.68985 7.55715 5.51321 7.67761 5.31121C7.84643 5.02783 8.06161 4.71129 8.10857 4.25113C8.18051 3.56953 8.00759 3.12293 8.01731 2.71909C8.02705 2.31525 8.03089 2.01817 8.11255 1.94623C8.19421 1.87429 8.13585 1.90155 8.13585 1.90155L8.13571 1.9013Z" fill="#A88F33"/>
<path fill-rule="evenodd" clip-rule="evenodd" d="M8.13598 4.94946C8.13598 4.94946 8.36638 4.38242 8.47186 3.8795C8.49132 3.77852 8.5301 3.67764 8.53982 3.59612C8.58834 3.12034 8.6019 2.92424 8.53982 2.66402C8.49132 2.47202 8.30494 2.29896 8.2078 2.16482C8.11271 2.02492 8.06803 1.97282 8.08749 1.94338C8.10694 1.91394 8.18259 1.86581 8.2563 1.87157C8.41468 1.87618 8.56424 1.94558 8.67 2.06356C8.8195 2.23636 8.9379 2.82286 8.9379 2.82286L9.06246 3.59676L9.379 4.57148L8.13625 4.95022L8.13598 4.94946Z" fill="#C99E3D"/>
<path fill-rule="evenodd" clip-rule="evenodd" d="M10.3009 4.3591C10.3009 4.3591 10.2581 4.37844 10.1806 4.3591C10.1873 4.42374 10.1573 4.4867 10.1029 4.52218C10.0213 4.48916 9.25807 4.5552 9.25807 4.5552C9.25807 4.5552 8.90275 4.493 8.79203 4.0231C8.71445 3.7104 8.85027 3.27942 8.80559 2.9959C8.73763 2.57838 8.64253 2.4967 8.63279 2.36678C8.62307 2.23686 8.61333 2.20372 8.61333 2.12218C8.57059 2.11246 8.54537 2.09888 8.50275 2.09888C8.49301 2.06048 8.51235 2.02694 8.46973 1.95898C8.49301 1.96871 8.65225 1.98817 8.83861 2.1648C8.99221 2.30854 8.99221 2.3609 9.01539 2.39008C9.04445 2.41914 9.27945 2.62048 9.38045 2.82118C9.48143 3.0219 9.67753 3.6619 9.72221 3.76672C9.73577 3.80948 9.76495 3.85222 9.83741 3.94926C9.95005 4.08916 10.115 4.32046 10.3014 4.35886L10.3009 4.3591Z" fill="#B58634"/>
<path fill-rule="evenodd" clip-rule="evenodd" d="M9.04297 2.40039C9.16061 2.59041 9.26627 2.78757 9.35939 2.99073C9.47395 3.24891 9.54191 3.46061 9.68567 3.63341C9.60797 3.40827 9.47011 2.96551 9.38857 2.80819C9.29731 2.64179 9.11095 2.46259 9.04297 2.40051V2.40039Z" fill="#A88F33"/>
<path fill-rule="evenodd" clip-rule="evenodd" d="M7.72244 5.59194C7.72244 5.59194 7.52634 5.64044 7.1613 5.8327C7.04084 5.89478 6.92642 5.94714 6.8157 5.99578C6.52808 6.12582 6.2196 6.24602 5.97486 6.31232C5.99432 6.33562 6.00392 6.34522 6.00392 6.34522C6.00392 6.34522 6.00392 6.44044 6.0564 6.49472C6.02734 6.5239 5.63886 6.78796 5.75354 7.67142C5.83112 7.64236 5.92238 7.60346 5.93594 7.60346C5.95938 7.60742 5.96514 7.67142 5.99418 7.67142C6.02324 7.67142 6.11848 7.63302 6.21946 7.50246C6.21562 7.55494 6.15738 8.08308 6.46996 8.4384C6.5282 8.37044 6.67578 8.14516 6.67578 8.14516L6.67962 8.07334C6.67962 8.07334 6.6932 7.82284 6.77486 7.59372C6.85652 7.3646 7.01562 7.19564 7.01562 7.19564L7.84648 6.00922L7.72218 5.5918L7.72244 5.59194Z" fill="#E6C367"/>
<path fill-rule="evenodd" clip-rule="evenodd" d="M6.94524 7.33376C6.9072 7.36064 6.8653 7.38158 6.82096 7.39584C6.8074 7.34734 6.78794 7.1803 6.9025 7.01722C7.03652 6.821 7.32964 6.56666 7.41116 6.36442C7.46364 6.23424 7.44036 5.9081 7.9064 5.49056C8.37244 5.07302 8.55484 4.92942 8.55484 4.92942L9.30826 4.55078L10.2345 4.91584L9.7743 6.71936L9.41706 7.56416L7.99626 7.29626L6.94512 7.33376H6.94524Z" fill="#DCBA5A"/>
<path fill-rule="evenodd" clip-rule="evenodd" d="M7.48828 6.84541L7.66506 6.62409V6.46677C7.66506 6.46677 7.86116 6.41429 8.07274 6.19875C8.28432 5.98319 8.57756 5.56963 8.83588 5.59485C9.09418 5.62403 9.1194 6.15599 9.12912 6.30563C9.13884 6.45525 9.17188 6.79485 9.22422 6.97749C9.28246 7.16003 8.5951 7.85123 8.5951 7.85123L8.12828 8.20655L7.48828 6.84541Z" fill="#E9CE77"/>
<path fill-rule="evenodd" clip-rule="evenodd" d="M8.03516 8.68791C8.03516 8.68791 8.1789 8.46263 8.07356 8.41411C8.13564 8.27433 8.2502 8.12675 8.2502 8.12675C8.2502 8.12675 8.33174 7.92489 8.5958 7.67631C8.85986 7.42773 9.02305 7.26261 9.06581 7.09571C9.09215 6.98693 9.10649 6.87559 9.10855 6.76367C9.13711 6.78699 9.16765 6.80777 9.19981 6.82575C9.24257 6.84521 9.44443 7.01213 9.41537 7.34813C9.38631 7.68413 9.26177 7.82389 9.26177 7.82389C9.26177 7.82389 9.14145 7.94421 9.05607 8.00643C8.9647 8.06851 8.93179 8.14031 8.77831 8.14621C8.79409 8.13367 8.81182 8.12381 8.8308 8.11701C8.8308 8.11701 8.67158 8.09769 8.58606 8.17525C8.50056 8.25283 8.3188 8.49181 8.22754 8.56375C8.13628 8.62197 8.03554 8.68803 8.03554 8.68803L8.03516 8.68791Z" fill="#CDAE50"/>
<path fill-rule="evenodd" clip-rule="evenodd" d="M14.4914 4.91136C14.262 4.82776 14.0209 4.7806 13.7769 4.7716C13.3691 4.75802 12.773 4.78132 12.1886 4.78516C11.5594 4.789 10.9886 4.56962 10.1964 4.53082C10.0663 4.45312 9.73557 4.1133 8.70312 4.83368C8.76521 4.82984 9.45268 4.67444 9.6914 4.97358C9.93218 5.27066 9.8642 5.7755 9.83132 5.89582C9.7691 6.16386 9.56712 6.55412 9.48572 6.82792C9.4043 7.1017 9.4235 7.24558 9.36526 7.43758C9.30702 7.62958 9.1789 7.72494 9.25454 7.94626C9.35554 7.88418 9.40814 7.88418 9.57684 7.50554C9.74556 7.12692 9.71087 6.85698 9.99055 6.53658C10.2643 6.21428 10.7201 5.77344 10.8935 5.66274C11.0668 5.55202 12.4429 4.83752 13.8838 5.51912C14.2313 5.48226 14.4915 4.91124 14.4915 4.91124L14.4914 4.91136Z" fill="#D2A83E"/>
<path fill-rule="evenodd" clip-rule="evenodd" d="M9.28297 4.6474C9.28153 4.63282 9.27831 4.61846 9.27337 4.60466C9.25989 4.57626 9.24219 4.55006 9.22089 4.52696C9.22089 4.52696 8.87913 4.46488 8.70633 4.4842C8.40335 4.51722 8.12955 4.89202 8.00143 5.08426C7.87329 5.27652 7.71407 5.57348 7.54127 5.72696C7.54315 5.712 7.53971 5.69686 7.53153 5.6842C7.53153 5.6842 7.54127 5.69778 7.52193 5.71722C7.50261 5.73668 7.50249 5.74628 7.51221 5.75562L7.54139 5.78468C7.55099 5.78468 7.81903 5.66424 8.18409 5.32388C8.57243 4.96856 8.86953 4.78628 9.02491 4.72382C9.10779 4.6886 9.19441 4.66296 9.28309 4.6474H9.28297Z" fill="#C29637"/>
<path fill-rule="evenodd" clip-rule="evenodd" d="M15.9126 3.18555C15.9126 3.18555 15.8503 3.26313 15.7727 3.34863C15.5999 3.53115 15.3746 3.73685 15.1823 3.94857C14.9999 4.15055 14.7941 4.30785 14.5629 4.57193C14.3318 4.83599 14.0637 5.12911 13.9959 5.21461C13.9338 5.30011 13.8853 5.43989 13.8853 5.51169C13.8523 5.48841 13.8135 5.46319 13.8135 5.46319C13.8298 5.49367 13.8493 5.52233 13.8717 5.54869C13.9202 5.61665 13.9959 5.70229 14.0348 5.75451C14.0825 5.82099 14.1168 5.89619 14.1357 5.97583C14.159 5.97967 14.3085 6.00885 14.495 5.70203C14.6815 5.39521 14.9259 5.05935 14.9259 5.05935L15.3143 4.48257L15.559 3.99337L15.8662 3.44577L15.9129 3.18555H15.9126Z" fill="#AC8132"/>
<path fill-rule="evenodd" clip-rule="evenodd" d="M16.3112 2.79492C16.3112 2.79492 16.0762 2.98692 15.9849 3.10212C15.8937 3.21732 15.6777 3.51966 15.6777 3.51966L15.7554 3.50992L16.1497 3.16048L16.3033 2.8867L16.3111 2.79542L16.3112 2.79492Z" fill="#A88F33"/>
<path fill-rule="evenodd" clip-rule="evenodd" d="M16.2393 18.2256C16.2393 18.2256 16.2355 18.0664 16.3248 17.9713C16.4161 17.8761 16.6471 17.7363 16.8724 17.212C17.0977 16.6877 17.1228 16.5693 17.1228 16.5693C17.1228 16.5693 16.7189 16.9149 16.47 16.9964C16.5282 16.876 16.5612 16.7906 16.5904 16.7284C16.5574 16.6993 16.4176 16.6663 16.404 16.6508C16.4816 16.5731 16.5244 16.3828 16.6817 16.2566C16.8837 16.103 17.2525 15.8391 17.5393 15.6038C17.826 15.3685 18.3897 14.8213 18.4616 14.6621C18.5044 14.7242 18.514 14.763 18.514 14.763C18.514 14.763 18.2306 15.132 18.083 15.3669C17.9528 15.5689 17.9626 15.6834 17.9626 15.6834L18.2306 15.5682C18.2306 15.5682 18.3082 15.8556 17.9568 16.2926C18.1104 16.2343 18.1724 16.2693 18.2597 16.2206C18.1159 16.312 17.9179 16.4363 17.7315 16.778C17.549 17.1197 17.3004 17.5178 16.8811 17.7662C16.4733 18.0284 16.2383 18.2245 16.2383 18.2245L16.2393 18.2256Z" fill="#A67A2E"/>
<path fill-rule="evenodd" clip-rule="evenodd" d="M15.1862 5.11315C15.1862 5.11315 15.027 5.44505 15.0037 5.70335C14.9998 5.76557 14.9842 5.81407 14.9842 5.88589C14.9804 6.11693 14.9978 6.37523 14.9458 6.49555C14.9264 6.44703 14.9166 6.41401 14.8972 6.39469C14.8681 6.47621 14.8156 6.73055 14.7729 6.82565C14.7536 6.76357 14.7108 6.54803 14.7148 6.29369C14.7187 6.03935 14.7244 5.99071 14.7244 5.93837C14.7148 6.01593 14.6623 6.12089 14.6428 6.18297C14.6138 6.13061 14.5808 6.06265 14.5418 6.00633C14.5185 6.04473 14.4895 6.10143 14.4643 6.13061C14.4603 6.10733 14.4507 6.04511 14.4448 5.95781C14.441 5.85683 14.4351 5.72677 14.441 5.69951C14.4506 5.64717 14.5322 5.44133 14.705 5.25293C14.9109 5.02765 15.1226 4.59475 15.1847 4.46073C15.2467 4.32671 15.5108 3.76953 15.5108 3.76953H15.7128L15.4195 4.43743C15.4195 4.43743 15.2429 4.80249 15.1516 4.93663C15.0604 5.07077 14.8681 5.45517 14.7826 5.60467C14.8447 5.52313 14.8972 5.48037 14.9594 5.40269C15.0195 5.34829 15.1864 5.11341 15.1864 5.11341L15.1862 5.11315Z" fill="#8C6228"/>
<path fill-rule="evenodd" clip-rule="evenodd" d="M16.3146 2.76953C16.2816 2.87109 16.2295 2.96537 16.161 3.04729C16.0405 3.19103 15.7822 3.38317 15.6562 3.53651C15.541 3.68601 15.3106 4.09383 15.4153 4.57727C15.4537 4.47245 15.526 4.26471 15.7182 4.02969C15.9105 3.79469 16.1163 3.52487 16.2174 3.31519C16.3183 3.10349 16.3319 2.93657 16.3319 2.93657L16.3703 2.88807L16.347 2.77735L16.3139 2.76953H16.3146Z" fill="#CBA94C"/>
<path fill-rule="evenodd" clip-rule="evenodd" d="M20.2469 15.6491C20.2469 15.6491 20.1693 15.4375 20.1459 15.2452C20.1227 15.053 20.1843 15.0148 20.1129 14.7948C20.0701 14.6608 19.9927 14.6796 19.9732 14.6608C19.9537 14.642 19.9402 14.4395 19.944 14.3288C19.9479 14.218 19.9402 14.0744 19.9207 14.0122C19.8917 13.9889 19.8722 13.9695 19.8295 13.8259C19.7809 13.6821 19.7576 13.6103 19.7343 13.5677C19.7111 13.5251 19.643 13.4861 19.643 13.4434C19.643 13.3579 19.7207 13.3133 19.7207 13.2898C19.7168 13.2413 19.6586 13.2802 19.643 13.2665C19.6236 13.2432 19.6916 13.1034 19.6664 13.084C19.6567 13.0744 19.5887 13.1559 19.5711 13.1326C19.5517 13.1092 19.5284 12.8781 19.4935 12.7248C19.4606 12.5753 19.4255 12.4666 19.4216 12.4219C19.4178 12.3792 19.1536 11.6258 19.0896 11.4433C19.038 11.289 18.9946 11.1322 18.9596 10.9734C18.9401 10.8821 18.9265 10.6956 18.9168 10.7151C18.9071 10.7345 18.913 10.8296 18.8974 10.8258C18.8838 10.8218 18.8353 10.4899 18.8198 10.4374C18.8062 10.385 18.7246 10.207 18.7046 10.0783C18.6851 9.94811 18.6425 9.60827 18.6133 9.37723C18.5841 9.14619 18.5706 9.05107 18.5706 8.99323C18.5753 8.85171 18.5675 8.71005 18.5473 8.56993C18.5089 8.32519 18.4321 8.02811 18.3647 7.85543C18.2347 7.52915 17.889 6.69421 17.8271 6.48647C17.8271 6.43399 17.8951 6.46317 17.8951 6.46317C17.8951 6.46317 18.0639 6.88647 18.1882 7.21261C18.3087 7.53889 18.4232 7.82625 18.4524 7.85543C18.4757 7.88449 18.6583 8.20487 18.7398 8.72915C18.8213 9.25345 18.8504 9.73691 18.899 10.0592C18.9223 10.2128 18.9418 10.3757 18.9903 10.5388C19.0426 10.7156 19.1242 10.8981 19.2311 11.1777C19.3223 11.4127 19.3903 11.6088 19.4271 11.7777C19.4699 11.9933 19.4699 12.1563 19.4951 12.2632C19.5185 12.3545 19.5534 12.5369 19.635 12.8008C19.7167 13.0648 19.8369 13.4047 19.9184 13.6163C20.0777 14.0396 20.1487 14.393 20.1729 14.5814C20.1941 14.7756 20.2661 15.4475 20.2465 15.6493L20.2469 15.6491Z" fill="#A88F33"/>
<path fill-rule="evenodd" clip-rule="evenodd" d="M16.3248 2.74576L16.3151 2.76906C16.3151 2.76906 16.3442 2.7788 16.3384 2.8177C16.3388 2.87094 16.3356 2.92414 16.3287 2.97694C16.3191 3.0449 16.2996 3.09726 16.2958 3.14C16.2958 3.23128 16.3093 3.3361 16.1806 3.59632C16.1422 3.66814 16.1185 3.73022 16.099 3.77296C16.0505 3.8778 16.0408 3.89342 15.998 3.94192C16.066 3.90352 16.3107 3.74992 16.4349 3.77296C16.3495 3.82148 16.2194 3.91672 16.1378 4.041C16.1573 4.04484 16.2388 4.06046 16.3682 4.041C16.5838 4.00798 16.8245 3.93028 17.0361 3.94576C17.2673 3.95934 17.176 3.66814 17.176 3.66814L16.9093 3.08176L16.4044 2.72656L16.3248 2.7459V2.74576Z" fill="#BE9C44"/>
<path fill-rule="evenodd" clip-rule="evenodd" d="M17.6407 7.13824C17.6407 7.13824 17.4154 6.91296 17.3242 6.13984C17.2329 5.36314 17.2524 4.21984 17.2524 4.21984L17.0699 3.77324C17.0699 3.77324 17.0315 3.47616 16.9359 3.36556C16.8402 3.25498 16.6525 3.06848 16.567 2.97722C16.4815 2.88596 16.3844 2.76166 16.3262 2.74219C16.3552 2.69369 16.4854 2.4199 16.9844 2.41606C17.4833 2.41222 17.6371 2.68986 17.6892 2.79084C17.7413 2.89184 17.9766 3.32844 18.0639 4.16044C18.1454 4.99142 18.1494 5.05364 18.1358 5.341C18.1261 5.50022 18.0736 5.86912 17.9822 6.26324C17.8988 6.59732 17.8075 6.97018 17.6405 7.139L17.6407 7.13824Z" fill="#A17C34"/>
<path fill-rule="evenodd" clip-rule="evenodd" d="M16.9344 7.79919C17.0095 7.80461 17.0845 7.78769 17.15 7.75055C17.2218 7.74671 17.482 7.77973 17.6819 7.52539C17.6955 7.58351 17.7306 7.74095 17.6392 7.88073C17.6878 7.83209 17.7596 7.81275 17.7694 7.79919C17.7732 7.87099 17.8412 8.09231 17.5538 8.63017C17.6314 8.54479 17.7226 8.54863 17.8042 8.53891C17.8081 8.63989 17.8624 8.97961 17.7188 9.16227C17.6237 9.28655 17.4683 9.24763 17.4683 9.24763C17.4706 9.22051 17.4706 9.19323 17.4683 9.16611C17.4645 9.11363 17.445 9.06127 17.4587 9.02633C17.3836 8.99203 17.3152 8.94465 17.2567 8.88643C17.0878 8.72719 16.8684 8.45545 16.8529 8.25347C16.8334 8.02819 17.0354 7.97967 17.0354 7.97967C17.0185 7.96453 17.0041 7.94683 16.9927 7.92719C16.9829 7.89429 16.9732 7.84181 16.9344 7.79919Z" fill="#8C6228"/>
<path fill-rule="evenodd" clip-rule="evenodd" d="M15.4371 5.35635C15.4371 5.35635 15.4274 5.34279 15.375 5.40487C15.3847 5.34279 15.3945 5.28441 15.3983 5.22809C15.4231 5.17595 15.4551 5.12761 15.4935 5.08449C15.4644 5.14259 15.4449 5.19507 15.4449 5.19507C15.4449 5.19507 15.5168 5.06105 15.6217 4.97953C15.6935 4.92129 15.7847 4.89415 15.8235 4.83975C15.8663 4.78151 15.8565 4.77177 15.8663 4.76205C15.8663 4.76205 15.9615 4.69997 16.1072 4.51731C16.1265 4.49401 16.1557 4.46881 16.1751 4.44551C16.208 4.43193 16.2857 4.39699 16.377 4.35027C16.4722 4.29793 16.579 4.22611 16.645 4.19667C16.7751 4.13843 16.9131 4.14433 16.9771 4.05293C17.0256 4.03937 17.0779 3.89369 17.0683 3.76953C17.1401 3.79859 17.509 4.02771 17.6354 4.52871C17.7266 4.88403 17.5634 5.43161 17.4955 5.69581C17.4275 5.96001 17.4179 6.15597 17.3227 6.27629C17.2022 6.43565 16.814 6.66029 16.7188 6.77153C16.6372 6.86279 16.3926 7.09383 16.4022 7.26073C16.4119 7.38503 16.5653 7.45273 16.5984 7.47629C16.6316 7.49985 16.6313 7.52877 16.6935 7.51469C16.7557 7.50061 16.7789 7.47193 16.8043 7.47193C16.8333 7.47577 16.8333 7.48167 16.8469 7.48167C16.8567 7.48137 16.8665 7.48005 16.8761 7.47769C16.8761 7.47769 16.8663 7.65447 16.4528 7.70809C16.4236 7.71207 16.3945 7.72167 16.3575 7.72755C16.4062 7.70425 16.4352 7.70425 16.4877 7.63245C16.4295 7.62273 16.2624 7.61299 16.2197 7.59943C16.2332 7.57613 16.2779 7.51393 16.3148 7.48487C16.3478 7.45581 16.3109 7.44647 16.2819 7.46157C16.2319 7.49561 16.1839 7.53253 16.1381 7.57217C16.0896 7.61491 16.0469 7.67315 15.9692 7.72577C15.9459 7.64807 15.9497 7.50049 16.0411 7.39373C16.0177 7.39757 15.973 7.46553 15.9304 7.45197C15.9227 7.38115 15.9273 7.30953 15.944 7.24025C15.9673 7.15283 16.0935 6.99949 16.0935 6.99949L16.7031 5.91009L16.8332 5.08487L15.4371 5.35609V5.35635Z" fill="#92723A"/>
<path fill-rule="evenodd" clip-rule="evenodd" d="M15.4043 5.40373C15.4043 5.40373 15.3713 5.42703 15.4373 5.47169C15.4276 5.48527 15.4043 5.53377 15.3751 5.56681C15.3422 5.60521 15.3072 5.62901 15.2936 5.66203C15.2645 5.73001 15.2412 5.77659 15.2412 5.80577C15.2412 5.83497 15.2315 6.02133 15.15 6.14165C15.1208 6.18441 15.0878 6.25621 15.0645 6.30473C15.016 6.39009 14.9732 6.45833 14.9635 6.49673C14.9442 6.56469 14.9306 6.75105 14.9306 6.75105C14.9306 6.75105 14.9733 6.69857 14.9888 6.67925C14.9654 6.72777 14.9402 6.78011 14.9033 6.81903C14.9266 6.79957 14.9946 6.75105 15.1091 6.65007C15.2684 6.51617 15.517 6.29089 15.8199 6.11247C15.7285 6.14549 15.651 6.14549 15.5889 6.15521C15.6374 6.10671 16.0743 5.59407 16.3034 5.54555C16.3173 5.52791 16.3242 5.50577 16.3228 5.48335L16.1266 5.46401L15.7285 5.54939L15.6704 5.24219L15.4043 5.40335V5.40373Z" fill="#B18E3E"/>
<path fill-rule="evenodd" clip-rule="evenodd" d="M16.0373 7.15105C16.0373 7.15105 15.9848 7.20341 15.9363 7.33359C15.899 7.29459 15.867 7.25081 15.8411 7.20341C15.7693 7.08309 15.6587 6.92961 15.4004 7.01705C15.3965 6.93551 15.3907 6.89275 15.4004 6.83451C15.4431 6.82491 15.5732 6.72009 15.7032 6.56661C15.7946 6.46177 15.88 6.34133 15.9382 6.18799C15.9766 6.15881 16.0431 6.11029 16.1302 6.05397C16.2545 5.96859 16.404 5.85199 16.4273 5.72193C16.3691 5.74523 16.2448 5.80347 16.0583 5.79387C16.1302 5.76085 16.2408 5.72591 16.2273 5.58217C16.2564 5.56271 16.2797 5.54913 16.2797 5.54913C16.2579 5.54183 16.2348 5.53855 16.2118 5.53941C16.2078 5.52585 16.202 5.50651 16.169 5.51611C16.136 5.52571 16.1306 5.52585 16.1263 5.53941C16.1127 5.54337 16.068 5.53941 16.035 5.56283C16.002 5.58625 15.9107 5.66369 15.8758 5.67727C15.8893 5.65397 15.9087 5.61915 15.9087 5.61915C15.9087 5.61915 15.8136 5.62875 15.7456 5.65755C15.6213 5.70031 15.4777 5.77801 15.332 5.85365C15.3456 5.83035 15.3515 5.81525 15.3611 5.81089C15.3707 5.80655 15.3941 5.80129 15.3941 5.79733C15.3941 5.79337 15.3845 5.75893 15.3903 5.74497C15.4338 5.65273 15.4852 5.56437 15.5439 5.48091C15.6118 5.38953 15.6254 5.25947 15.6254 5.25947L15.9225 5.10997L16.7574 4.91797L17.2992 4.95099L17.2313 5.32577L16.9113 5.98011L16.6375 6.57621L16.3248 6.94139L16.0374 7.15105H16.0373Z" fill="#543E26"/>
<path fill-rule="evenodd" clip-rule="evenodd" d="M17.3906 5.52892C17.3906 5.52892 17.0643 5.93276 16.973 5.99498C17.0313 5.87068 17.3906 5.13084 17.5206 4.92502C17.4916 4.90172 17.4526 4.90172 17.5439 4.54102C17.4663 4.72342 17.4391 4.81866 17.3751 4.86716C17.3111 4.91568 17.3031 4.90018 17.2599 4.90018C17.268 4.88542 17.2714 4.86846 17.2695 4.85168C17.2695 4.85168 16.9957 4.81866 16.8087 4.81866C16.6217 4.81866 16.2515 4.91964 16.0455 5.00118C15.8825 5.06914 15.7912 5.06914 15.733 5.11178C15.6747 5.16028 15.6417 5.21276 15.6125 5.22634C15.5892 5.2399 15.4786 5.27484 15.4533 5.3117C15.43 5.3501 15.3912 5.39324 15.3912 5.40298C15.3912 5.4127 15.3815 5.4264 15.4107 5.41654C15.4203 5.4127 15.4922 5.37378 15.5737 5.32528C15.6843 5.2632 15.8183 5.19138 15.9155 5.14864C16.1931 5.03792 16.2805 5.05738 16.4047 5.03408C16.5348 5.01078 16.7213 4.95638 16.8454 4.95638C16.9697 4.95254 17.2047 4.95638 17.2591 4.9661C17.2358 4.98556 17.2164 5.00886 17.2261 5.0904C17.2261 5.1137 17.2066 5.1389 17.1877 5.19522C17.1296 5.35446 17.0189 5.61852 16.9573 5.75254C16.8719 5.93494 16.7749 6.08842 16.7269 6.18352C16.6789 6.27862 16.5733 6.52912 16.4687 6.66314C16.3641 6.79714 16.3095 6.87867 16.2767 6.90786C16.2439 6.93706 16.0087 7.10972 16.0262 7.17194C16.069 7.15835 16.3389 7.05674 16.5349 6.83606C16.7309 6.61538 16.7699 6.48074 16.9232 6.36028C17.0766 6.23984 17.197 6.03798 17.2688 5.87106C17.329 5.71568 17.3154 5.66716 17.3911 5.5293L17.3906 5.52892Z" fill="#806031"/>
<path fill-rule="evenodd" clip-rule="evenodd" d="M10.3588 8.54287C10.3588 8.54287 10.3161 8.71951 10.2189 8.80693C10.1238 8.89245 9.95487 8.96617 9.93555 9.10991C9.91225 9.25353 10.1045 9.32547 10.1045 9.32547C10.1045 9.32547 9.99955 9.49827 9.99955 9.62831C9.99955 9.76233 9.99571 9.78755 10.0093 9.91567C9.99387 9.92559 9.98077 9.93867 9.97087 9.95407C9.97087 9.95407 9.98047 10.0784 10.0757 10.1559C10.1709 10.2335 10.2524 10.2802 10.3009 10.2608C10.3083 10.2766 10.3148 10.2928 10.3203 10.3094C10.3203 10.3094 10.3923 10.1269 10.4408 9.96765C10.4893 9.80457 10.532 9.82773 10.5514 9.60835C10.5707 9.38895 10.7818 9.01225 10.7818 9.01225L10.9258 8.69033L10.6909 8.50781L10.3588 8.54275V8.54287Z" fill="#B6903C"/>
<path fill-rule="evenodd" clip-rule="evenodd" d="M10.7962 8.85938C10.7477 8.9091 10.703 8.96232 10.6624 9.0186C10.6003 9.10412 10.5518 9.18167 10.4605 9.21483C10.3693 9.24797 10.311 9.24772 10.3168 9.33912C10.3226 9.43052 10.4081 9.46915 10.4566 9.51575C10.5091 9.56427 10.5518 9.64579 10.5285 9.7372C10.5576 9.72364 10.61 9.70801 10.6586 9.60317C10.7071 9.49835 11.0464 8.85949 11.0464 8.85949H10.7962V8.85938Z" fill="#685026"/>
<path fill-rule="evenodd" clip-rule="evenodd" d="M12.1343 7.38554C12.1343 7.38554 12.1633 7.30796 12.1343 7.25164C12.1051 7.1934 11.9284 7.17394 11.841 7.1079C11.7497 7.03994 11.639 6.9927 11.5478 7.02252C11.5613 6.9895 11.6157 6.91756 11.5711 6.90208C11.5283 6.8885 11.3692 6.96032 11.3265 6.99334C11.2837 7.02636 11.1865 7.06514 11.1672 7.08858C11.1479 7.112 11.1147 7.15654 11.0953 7.13708C11.0758 7.12352 11.0662 7.08858 11.0332 7.1079C11.0002 7.12722 10.8412 7.2574 10.8119 7.33318C10.7826 7.40896 10.7167 7.57792 10.5186 7.77004C10.3206 7.96218 10.2351 8.08658 10.2934 8.1584C10.3516 8.2302 10.3789 8.17786 10.3886 8.23994C10.3961 8.30088 10.3928 8.36266 10.3789 8.42246C10.3556 8.52346 10.3168 8.61856 10.3691 8.63802C10.5032 8.68076 10.6333 8.59962 10.6624 8.62444C10.7206 8.6768 10.6294 8.86522 10.7672 8.90208C10.9071 8.94048 11.045 8.86906 11.045 8.86906L11.5537 8.59526L12.043 8.33708L12.2934 7.84186L12.1591 7.42828L12.1335 7.38554H12.1343Z" fill="#D4B968"/>
<path fill-rule="evenodd" clip-rule="evenodd" d="M11.6539 8.56975C11.6539 8.56975 11.5684 8.43971 11.6734 8.32501C11.7783 8.21033 11.9277 8.16195 11.986 8.09013C11.9749 8.07645 11.96 8.06635 11.9432 8.06107C11.9819 7.99191 12.0409 7.93627 12.1122 7.90171C12.0831 7.87267 12.0442 7.84937 12.0016 7.84937C11.9063 7.84937 11.848 7.90761 11.7607 7.90761C11.6753 7.90761 11.6656 7.86485 11.6656 7.86485C11.6656 7.86485 11.8093 7.85129 11.7956 7.78715C11.7821 7.71919 11.7572 7.71919 11.7572 7.71919C11.7572 7.71919 12.0349 7.60399 12.0834 7.54255C12.1319 7.48111 12.1261 7.40853 12.1358 7.37947C12.1687 7.37947 12.361 7.27849 12.4387 7.32123C12.5164 7.36399 12.462 7.48047 12.462 7.48047C12.462 7.48047 12.6971 7.30371 12.8169 7.13039C12.9218 7.14011 12.9705 7.05859 13.0473 7.05859C13.1426 7.05859 13.2921 7.18863 13.3211 7.46627C13.3406 7.62549 13.3696 7.71675 13.3406 7.99835C13.327 8.15759 13.3309 8.49755 13.379 8.66627C13.4119 8.80027 13.4896 8.78671 13.4896 8.78671C13.4777 8.82755 13.454 8.86399 13.4216 8.89155C13.3691 8.94005 13.3634 9.06831 13.3691 9.11683C13.3769 9.15229 13.3866 9.18729 13.3983 9.22165C13.3983 9.22165 13.3362 9.29347 13.3206 9.34211C13.307 9.39061 13.243 9.42363 13.1963 9.42363C13.1496 9.42363 13.173 9.41967 13.111 9.42363C13.0489 9.42761 13.0294 9.43721 12.9905 9.42363C12.9516 9.41007 12.9225 9.39445 12.9382 9.27003C12.9517 9.14575 12.4585 8.85647 12.4585 8.85647L11.6521 8.56911L11.6539 8.56975Z" fill="#CCA849"/>
<path fill-rule="evenodd" clip-rule="evenodd" d="M10.7282 9.79624C10.7282 9.79624 10.9048 10.0313 11.6311 10.0313C11.9767 10.0313 12.0971 9.99824 12.1687 9.97878C12.2464 9.95932 12.5376 9.84488 12.8308 9.49916C13.0949 9.18658 13.0367 9.05846 13.0367 9.05846L12.8831 9.03516L12.3839 9.10312L10.9067 9.73224L10.7275 9.79624H10.7282Z" fill="#585136"/>
<path fill-rule="evenodd" clip-rule="evenodd" d="M11.2697 9.85398C11.2697 9.85398 10.6406 9.99388 10.6406 9.5958C10.6406 9.20744 11.029 8.79964 11.1261 8.72782C11.2271 8.6559 11.4679 8.57422 11.4679 8.57422H12.0485L12.1591 8.86748L12.1106 9.50044L11.2697 9.85384V9.85398Z" fill="#252211"/>
<path fill-rule="evenodd" clip-rule="evenodd" d="M11.8508 8.69384C11.8508 8.69384 11.7304 8.58312 11.4567 8.73224C11.1829 8.88136 10.9614 9.19304 10.9479 9.47606C10.9343 9.72642 11.1537 9.91292 11.4954 9.92264C11.7498 9.93224 11.9032 9.9032 11.9809 9.88424C11.9615 9.86096 11.8605 9.73474 11.8605 9.73474L11.8509 8.69398L11.8508 8.69384Z" fill="#C3B378"/>
<path fill-rule="evenodd" clip-rule="evenodd" d="M11.7322 8.75582C11.7322 8.75582 11.7031 8.73253 11.617 8.77913C11.5451 8.81753 11.4403 8.91902 11.3588 8.99082C11.3063 9.03358 11.2733 9.05291 11.2436 9.08595C11.1231 9.22969 11.0221 9.46469 11.0805 9.58117C11.1389 9.69765 11.331 9.83167 11.8203 9.74041L11.7307 8.75594L11.7322 8.75582Z" fill="#E6D89C"/>
<path fill-rule="evenodd" clip-rule="evenodd" d="M11.5726 8.99661C11.5726 8.99661 11.4949 9.11705 11.4949 9.30931C11.4949 9.50541 11.6056 9.81799 12.0134 9.84127C12.326 9.86073 12.5357 9.39085 12.7629 9.20831C12.9357 9.06855 13.0405 9.06457 13.0405 9.06457C13.0405 9.06457 12.8639 8.87257 12.3921 8.62387C11.926 8.37337 11.4036 8.34035 11.1201 8.72487C11.2541 8.71513 11.6872 8.60441 11.6872 8.60441L11.8989 8.67239L11.5726 8.99673V8.99661Z" fill="#252211"/>
<path fill-rule="evenodd" clip-rule="evenodd" d="M12.1828 9.2498C12.1693 9.22074 12.1595 9.18182 12.2158 9.17222C12.2722 9.16262 12.2974 9.16826 12.3168 9.21062C12.3363 9.253 12.3552 9.28832 12.3264 9.30586C12.2974 9.32134 12.2216 9.30586 12.1827 9.24954L12.1828 9.2498ZM12.0916 8.976C12.0916 8.976 12.0721 8.98956 12.0818 8.96244C12.0857 8.92954 12.111 8.87116 12.1731 8.88486C12.2352 8.89856 12.2217 8.9664 12.2115 8.98586C12.2013 9.00532 12.1494 9.0382 12.1105 9.02426C12.1005 9.0217 12.0923 9.01452 12.0885 9.00494C12.0846 8.99536 12.0856 8.9845 12.091 8.97574L12.0916 8.976Z" fill="#6F674D"/>
<path fill-rule="evenodd" clip-rule="evenodd" d="M6.83496 9.10181C6.83496 9.10181 6.98856 9.21701 7.167 9.21253C7.34364 9.20855 7.57084 9.02615 7.67566 8.90955C7.73774 8.84157 7.79086 8.76977 7.84846 8.71345C7.8971 8.66493 7.93 8.64165 7.9533 8.60861C7.98632 8.57021 8.02126 8.49803 8.0388 8.47461C7.99606 8.50763 7.93398 8.56599 7.86984 8.60477C7.80776 8.64317 7.67374 8.71537 7.61934 8.73483C7.567 8.75429 7.02326 9.04203 7.02326 9.04203L6.83496 9.10181Z" fill="#AC924C"/>
<path fill-rule="evenodd" clip-rule="evenodd" d="M7.07031 7.66515C7.07031 7.66515 7.15569 7.60691 7.32081 7.56993C7.48005 7.53153 7.80043 7.50195 7.80043 7.50195L8.06449 7.61715L8.16933 8.01523L7.97733 8.42893L7.73271 8.58253L7.45495 8.13595L7.07095 7.66593L7.07031 7.66515Z" fill="#9F8E57"/>
<path fill-rule="evenodd" clip-rule="evenodd" d="M6.72421 8.02175L6.63281 8.08997C6.63281 8.08997 6.65623 8.04721 6.67557 7.91717C6.69489 7.78713 6.79601 7.47057 6.94359 7.28805C7.09117 7.10553 7.08733 7.11525 7.08733 7.11525C7.05987 7.11023 7.03155 7.11727 7.00965 7.13457C7.02909 7.09157 7.15339 6.93797 7.27767 6.86117C7.40197 6.78437 7.45047 6.76017 7.58053 6.82277C7.71057 6.88537 7.74359 6.91787 7.83883 6.91403C7.93405 6.91019 8.01547 6.80921 8.01547 6.80921C8.01547 6.80921 8.03493 6.87129 7.96311 7.01503C7.89131 7.15877 7.60779 7.45189 7.60779 7.45189L7.01745 7.85573L6.72421 8.02213V8.02175Z" fill="#EAC970"/>
<path fill-rule="evenodd" clip-rule="evenodd" d="M7.16066 7.61822C7.16066 7.61822 7.58792 7.67646 7.71797 7.55614C7.72181 7.5697 7.73744 7.5697 7.73744 7.57944C7.73638 7.58676 7.73295 7.59356 7.72769 7.59876C7.74183 7.5965 7.75614 7.59522 7.77046 7.59492C7.78756 7.60002 7.80513 7.60328 7.82293 7.60466C7.83725 7.60434 7.85154 7.60302 7.86567 7.60068C7.86296 7.62018 7.85241 7.63774 7.83649 7.64932C7.85595 7.64932 7.87489 7.65316 7.87489 7.66866C7.87489 7.68414 7.87873 7.73086 7.85543 7.74058C7.83613 7.74592 7.81559 7.74452 7.79719 7.73662C7.79873 7.77338 7.80874 7.8093 7.8264 7.84158C7.8648 7.91338 7.94671 7.99518 8.05679 7.97162C8.05679 7.97162 8.11489 8.1114 7.87029 8.42206C7.83739 8.46482 7.80231 8.52306 7.75969 8.57156C7.74285 8.60828 7.72998 8.64668 7.7213 8.68612C7.7213 8.68612 8.13499 8.5269 8.25339 8.16376C8.37383 7.7987 8.39713 7.43954 8.37383 7.10366C8.36987 7.00842 8.35439 6.94058 8.33109 6.89194C8.27285 6.7715 8.10965 6.79096 8.04373 6.85892C7.94849 6.95416 7.78927 7.19096 7.56796 7.35402C7.34268 7.5171 7.33308 7.54602 7.16016 7.61822H7.16066Z" fill="#D7BC6B"/>
<path fill-rule="evenodd" clip-rule="evenodd" d="M6.64903 8.14255C6.64903 8.14255 6.56751 8.19105 6.52475 8.37295C6.48199 8.55931 6.56315 8.78651 6.61013 8.85831C6.65711 8.93013 6.76373 9.12635 6.98491 9.13607C7.03965 9.13579 7.09379 9.12455 7.14415 9.10305C7.22135 9.06765 7.29379 9.02261 7.35969 8.96903C7.45493 8.89723 7.53249 8.83515 7.52277 8.82927C7.49947 8.81953 6.93639 8.35349 6.93639 8.35349L6.72469 8.11719L6.64891 8.14279L6.64903 8.14255Z" fill="#585136"/>
<path fill-rule="evenodd" clip-rule="evenodd" d="M7.1804 8.9146C7.1804 8.9146 7.29496 8.905 7.36292 8.86226C7.43088 8.8195 6.96484 8.35742 6.96484 8.35742L6.99786 8.85662L7.1804 8.9146Z" fill="#453A25"/>
<path fill-rule="evenodd" clip-rule="evenodd" d="M6.68517 8.10606C6.68517 8.10606 6.62693 8.21678 6.62693 8.24596C6.61719 8.34106 6.64637 8.64008 6.66967 8.73518C6.69297 8.83616 6.81917 8.98952 6.98237 8.98952C7.08325 8.98952 7.22315 8.92744 7.22315 8.91194C7.22315 8.89248 7.07941 8.87354 7.04061 8.80122C7.01733 8.76282 7.00759 8.66734 7.00221 8.57082C6.99837 8.50874 6.99837 8.44078 7.02167 8.41722C7.07415 8.35898 7.08375 8.19194 7.08375 8.19194L7.27013 7.8457H7.02501L6.73175 8.02824L6.68517 8.10606Z" fill="#84754B"/>
<path fill-rule="evenodd" clip-rule="evenodd" d="M6.61328 8.21373C6.61328 8.21373 6.80528 7.95939 6.97834 7.90103C7.1514 7.84267 7.22884 7.87773 7.22884 7.87773L7.12784 8.13603L6.9841 8.29527L6.99382 8.37681C6.99382 8.37681 6.9704 8.59235 7.11414 8.74187C7.2579 8.89137 7.36464 8.88561 7.42686 8.88561C7.48906 8.88561 7.66762 8.83313 7.75888 8.61757C7.84042 8.41571 7.90838 8.15677 7.74532 7.89719C7.58596 7.63889 7.30448 7.62891 7.25008 7.62891C7.19568 7.62891 6.76854 7.65027 6.61328 8.21335V8.21373Z" fill="#252211"/>
<path fill-rule="evenodd" clip-rule="evenodd" d="M11.5432 9.07784C11.4714 9.0448 11.5394 8.84296 11.6112 8.78074C11.683 8.71854 11.7743 8.64685 11.9337 8.63699C11.9918 8.63315 12.0481 8.67002 12.0385 8.70894C12.0249 8.78074 11.9239 8.88174 11.8327 8.95354C11.7065 9.05262 11.6248 9.1147 11.5432 9.07784Z" fill="#F7F7E7"/>
<path fill-rule="evenodd" clip-rule="evenodd" d="M7.66043 7.9768C7.71291 7.97296 7.78087 8.0152 7.79443 8.07204C7.80801 8.13412 7.76141 8.2584 7.66043 8.2584C7.57889 8.2584 7.53613 8.15742 7.53613 8.12836C7.53705 8.10446 7.54373 8.08116 7.55559 8.0604C7.55943 8.0545 7.56915 7.98654 7.66043 7.9768Z" fill="#F8F6DE"/>
<path fill-rule="evenodd" clip-rule="evenodd" d="M6.90329 8.02148C6.90329 8.02148 6.76927 8.08356 6.70719 8.21348C6.66283 8.30942 6.64941 8.41678 6.66879 8.52068C6.67853 8.5692 6.72703 8.68952 6.76005 8.73228C6.79309 8.77502 6.83775 8.8042 6.87077 8.80024C6.90381 8.79628 6.97165 8.70898 6.97165 8.65662C6.97165 8.60428 6.97561 8.38284 7.03961 8.26238C7.09593 8.14206 6.90367 8.02162 6.90367 8.02162L6.90329 8.02148Z" fill="#D4C38B"/>
<path fill-rule="evenodd" clip-rule="evenodd" d="M6.92214 8.01096C6.89884 8.02452 6.86006 8.04398 6.86966 8.0692C6.87938 8.0925 6.96092 8.1076 6.9901 8.16444C7.02314 8.22268 7.02314 8.28476 7.0134 8.31394C7.03876 8.30188 7.06178 8.28541 7.08138 8.2653C7.12412 8.21678 7.17648 8.15086 7.22114 8.15086C7.25034 8.15086 7.27938 8.16444 7.30666 8.16444C7.3494 8.16444 7.39202 8.15086 7.39792 8.1062C7.40752 8.04796 7.31638 7.99548 7.2639 8.0052C7.27362 7.9668 7.2872 7.9101 7.24444 7.87118C7.2017 7.83228 7.0678 7.90036 7.03862 7.91982C7.00944 7.93928 6.92214 8.01108 6.92214 8.01108V8.01096Z" fill="#E2D59D"/>
<path fill-rule="evenodd" clip-rule="evenodd" d="M10.0082 12.0907L10.2955 12.0059L10.3771 12.0641C10.3771 12.0641 10.4352 12.1884 10.5266 12.2039C10.4974 12.266 10.4216 12.3191 10.4256 12.3631C10.4295 12.4071 10.4683 12.4408 10.4683 12.4408C10.4683 12.4408 10.21 12.8679 10.7188 13.2984C10.5984 13.3469 10.445 13.4136 10.3635 13.452C10.4216 13.4656 10.5459 13.4904 10.5984 13.5375C10.6509 13.5846 10.6509 13.5996 10.6994 13.6288C10.7479 13.658 10.7769 13.6967 10.7673 13.7142C10.7343 13.6947 10.6236 13.6366 10.6043 13.6909C10.5849 13.7451 10.1246 13.7239 10.1246 13.7239L9.34794 13.8734C9.34794 13.8734 9.377 13.7957 9.29546 13.7239C9.20036 13.6385 9.08388 13.7277 8.95958 13.6326C8.79652 13.5083 8.79062 13.3646 8.73828 13.3103C8.79062 13.2773 8.8975 13.2288 9.15184 13.1951C9.14212 13.1757 9.1091 13.1174 9.12854 13.0651C9.15184 12.9971 9.24886 12.9543 9.21982 12.8731C9.26256 12.8633 9.2819 12.8633 9.38878 12.7293C9.48976 12.5953 9.55184 12.5662 9.62954 12.5565C9.70724 12.5468 9.75382 12.5565 9.89758 12.4225C9.99844 12.3274 9.96554 12.2459 9.96554 12.2459C9.96554 12.2459 10.0315 12.2245 10.0083 12.0905L10.0082 12.0907Z" fill="#CBAC5A"/>
<path fill-rule="evenodd" clip-rule="evenodd" d="M9.15962 12.1337C9.16346 12.1142 9.17908 12.1045 9.28392 12.1142C9.38874 12.124 10.0528 12.0522 10.2334 12.0424C10.4159 12.0289 11.0586 12.0385 11.3713 12.1045C11.684 12.1706 12.0005 12.2482 12.1538 12.287C12.3074 12.3298 12.3558 12.3451 12.3499 12.3646C12.3461 12.3841 12.3115 12.403 12.2917 12.3976C12.2723 12.3938 11.7635 12.2384 11.6063 12.2056C11.4492 12.1729 10.9053 12.0852 10.6079 12.0904C10.3303 12.0944 10.2196 12.0866 9.98472 12.1137C9.7497 12.1429 9.36136 12.1817 9.24488 12.1662C9.12968 12.1526 9.15348 12.1526 9.15938 12.1332L9.15962 12.1337Z" fill="#D6BC6F"/>
<path fill-rule="evenodd" clip-rule="evenodd" d="M10.7226 13.6559C10.7226 13.6559 11.1206 13.8715 11.2644 14.1355C11.3692 14.3316 11.2023 14.4288 11.2023 14.4288C11.2023 14.4288 11.4276 14.4288 11.3984 14.5531C11.3849 14.6307 11.0101 14.8403 10.7596 14.951C10.5052 15.0618 10.5149 15.056 10.3907 15.0753C10.2702 15.0948 9.94011 15.0369 9.87213 15.1336C9.80417 15.2302 9.83373 15.3298 9.85269 15.3453C9.87213 15.3588 10.0294 15.3783 10.0294 15.3783C10.0294 15.3783 9.99643 15.4696 9.67029 15.4793C9.34413 15.489 9.26247 15.5122 9.24301 15.5473C9.22357 15.5802 9.30509 15.5608 9.45473 15.5857C9.60423 15.609 9.81389 15.6241 9.81389 15.6241C9.81389 15.6241 9.74593 15.6823 9.56929 15.7289C9.36731 15.7812 9.05077 15.8299 8.95565 15.8881C9.00417 15.9211 9.07611 15.9697 9.10925 15.9735C9.02773 15.993 8.91303 16.0357 8.89371 16.0512C8.92277 16.0707 8.96167 16.0939 8.96167 16.0939C8.96167 16.0939 8.79847 16.29 8.70337 16.3387C8.60827 16.3873 8.06069 16.6415 7.87227 16.593C7.40237 16.4687 7.34413 15.9542 7.22957 15.9154C7.05677 15.8571 6.97525 15.9735 6.82177 15.892C6.88973 15.8435 6.92673 15.8144 6.99853 15.7814C6.92085 15.743 6.51893 15.4881 6.51893 15.4881C6.47689 15.3965 6.43023 15.3071 6.37915 15.2202C6.30145 15.0862 6.18715 14.9075 6.10139 14.7502C5.91501 14.4046 5.90529 14.2454 5.73633 14.0493C5.76551 14.0109 5.86637 14.0163 5.86637 14.0163L7.28205 14.4823L9.79227 14.555L10.4451 13.623L10.7227 13.6561L10.7226 13.6559Z" fill="#DFC677"/>
<path fill-rule="evenodd" clip-rule="evenodd" d="M7.00391 15.0776C7.01907 15.0945 7.03673 15.1089 7.05627 15.1204C7.10491 15.1534 7.17671 15.1923 7.22523 15.2504C7.24469 15.2213 7.29319 15.1689 7.37883 15.2504C7.46447 15.3319 7.57083 15.2738 7.63701 15.2932C7.70497 15.3166 7.70881 15.3262 7.70881 15.3262C7.70881 15.3262 7.74721 15.2932 7.83311 15.2582C7.88559 15.2388 7.94767 15.2252 8.01563 15.2059C8.07771 15.1923 8.14567 15.1728 8.19239 15.1728C8.23515 15.2019 8.38849 15.3648 9.00405 15.1243C9.58465 14.899 9.71855 14.8738 9.81569 14.9086C9.82543 14.8853 9.83515 14.8407 9.98465 14.8466C9.98465 14.7845 9.86037 14.5728 9.86037 14.5728L9.17493 14.3379H8.80001L7.67579 14.5437L7.05281 14.8992L7.00431 15.0784L7.00391 15.0776Z" fill="#C4A859"/>
<path fill-rule="evenodd" clip-rule="evenodd" d="M6.62891 14.6839C6.62891 14.6839 6.64249 14.7888 6.79787 14.8995C6.95147 15.0101 6.99973 15.0761 6.99973 15.0761C6.99973 15.0761 7.02891 15.0377 7.05221 14.9986C7.07551 14.9558 7.09497 14.9073 7.13375 14.8937C7.21145 14.8607 7.38809 14.9228 7.42699 14.9131C7.46001 14.9035 7.45029 14.8355 7.48523 14.8355C7.56677 14.8315 7.61913 14.8878 7.64831 14.8878C7.67749 14.8878 7.74917 14.884 7.75889 14.8685C7.76863 14.853 7.77247 14.6918 7.88319 14.6141C8.00363 14.5287 8.15123 14.5655 8.19039 14.585C8.19039 14.6141 8.19423 14.686 8.27193 14.6898C8.34963 14.6937 8.35729 14.6801 8.42553 14.7034C8.49375 14.7267 8.57503 14.6996 8.61189 14.814C8.64491 14.8044 8.72261 14.7947 8.70315 14.6839C8.74155 14.6549 8.77509 14.6354 8.85675 14.5209C8.87621 14.4918 8.90911 14.4588 8.93445 14.416C9.00243 14.416 9.08395 14.4025 9.19263 14.4976C9.15961 14.5209 9.14015 14.536 9.13055 14.5597C9.15897 14.5878 9.18493 14.6183 9.20811 14.6509C9.23729 14.6893 9.25675 14.7364 9.29361 14.7462C9.37515 14.7694 9.50917 14.7364 9.65867 14.7462C9.80243 14.7559 9.92273 14.8082 9.97521 14.8413C9.99467 14.8317 9.99467 14.8277 10.0432 14.8374C10.0917 14.8471 10.1286 14.851 10.0762 14.7889C10.1053 14.8025 10.1383 14.8317 10.1675 14.8025C10.1967 14.7733 10.2198 14.7307 10.3014 14.7209C10.3829 14.7112 10.4121 14.7248 10.4451 14.6394C10.4878 14.5346 10.3403 14.5346 10.3403 14.5346C10.3403 14.5346 10.4082 14.4724 10.484 14.3908C10.5753 14.3054 10.6801 14.1947 10.7053 14.0588C10.7481 13.8083 10.5035 13.7754 10.5035 13.7754L9.31705 14.1405L7.86655 14.0685L6.62969 14.6841L6.62891 14.6839Z" fill="#927D49"/>
<path fill-rule="evenodd" clip-rule="evenodd" d="M5.56326 11.2558C5.56326 11.2558 5.52486 11.3043 5.50118 11.4189C5.4775 11.5334 5.4876 11.5199 5.46816 11.6014C5.4487 11.6829 5.20972 12.4946 5.29932 12.7684C5.38892 13.0422 5.54406 13.1432 5.64108 13.3645C5.66054 13.413 5.67948 13.4422 5.6896 13.4849C5.72262 13.6285 5.69356 13.7393 5.73234 13.883C5.74592 13.9315 5.78098 13.9878 5.83334 14.0461C5.94854 14.1664 6.13632 14.2809 6.21734 14.3625C6.33176 14.4829 6.49496 14.7277 6.70272 14.7508C6.81344 14.7644 6.97074 14.7178 7.1008 14.6402C7.216 14.5683 7.28716 14.4674 7.408 14.4098C7.49336 14.3671 7.58464 14.3516 7.66616 14.3321C7.83512 14.2991 7.9886 14.2937 8.07986 14.3127C8.21964 14.3419 8.54976 14.4429 8.73266 14.4429C8.8756 14.4406 9.01772 14.421 9.15596 14.3846C9.4336 14.3031 9.76946 14.1632 9.9909 14.1011C10.121 14.0627 10.2258 14.0526 10.3327 14.0293C10.5152 13.9865 10.6685 13.9283 10.756 13.8176C10.6977 13.7496 10.6259 13.6448 10.2374 13.6486C9.79672 13.6584 9.28792 13.903 9.03744 13.9419C8.78694 13.9808 8.67826 14.0137 8.39858 13.9127C8.1244 13.8107 8.11532 13.7432 8.11532 13.7432C8.11532 13.7432 7.82744 13.5419 7.707 13.0286C7.58656 12.5153 7.707 12.1413 8.0197 11.7858C8.10124 11.6946 8.08178 11.613 8.08178 11.613C8.08178 11.613 8.2876 11.3354 8.23128 11.0754C8.1692 10.8171 7.77112 10.8696 7.77112 10.8696L5.56338 11.2558H5.56326Z" fill="#6E6342"/>
<path fill-rule="evenodd" clip-rule="evenodd" d="M5.89562 12.1211C5.8785 12.1533 5.87046 12.1895 5.87234 12.2259C5.87618 12.2783 5.89178 12.3463 6.04898 12.4997C6.18298 12.6336 6.1538 12.7831 6.1538 12.7831C6.1538 12.7831 6.22126 12.7967 6.4043 12.7111C6.54804 12.6431 6.5963 12.7635 6.5963 12.7635C6.63814 12.7416 6.6835 12.7271 6.73032 12.7208C6.77274 12.7169 6.8138 12.7038 6.85064 12.6824C6.85064 12.6824 7.0196 12.8552 7.16718 12.9367C7.3012 13.0087 7.3789 13.0572 7.44494 13.0087C7.50702 12.9659 7.50702 12.8785 7.50306 12.8397C7.48766 12.8039 7.46814 12.77 7.44494 12.7387C7.40218 12.6766 7.33422 12.6047 7.32974 12.5467C7.32002 12.4128 7.43074 12.2535 7.4073 12.2147C7.38388 12.1759 7.29672 12.1662 7.08116 12.2439C6.85794 12.3176 5.89474 12.1215 5.89474 12.1215L5.89562 12.1211Z" fill="#39331F"/>
<path fill-rule="evenodd" clip-rule="evenodd" d="M6.40428 12.9887C6.40428 12.9887 6.29368 12.8839 6.33246 12.3751C6.37942 12.3744 6.4263 12.3789 6.47225 12.3886C6.47225 12.3886 6.53255 12.7829 6.40428 12.9887Z" fill="#292311"/>
<path fill-rule="evenodd" clip-rule="evenodd" d="M5.61576 10.8686C5.6312 10.8572 5.6455 10.8443 5.65852 10.8302C5.62012 10.902 5.44284 11.1894 5.58658 11.6419C5.73032 12.0923 6.09142 12.4282 6.53608 12.4438C6.98076 12.4594 7.21448 12.2418 7.48174 11.9157C7.58658 11.7856 7.70702 11.6224 7.81378 11.5118C7.97302 11.3389 8.0973 11.2904 8.0973 11.1235C8.0973 10.7817 7.74774 10.6282 7.23318 10.4749C6.71862 10.3216 6.25448 10.3405 6.01372 10.4455C5.77884 10.5599 5.67784 10.6803 5.61564 10.8688L5.61576 10.8686Z" fill="#252211"/>
<path fill-rule="evenodd" clip-rule="evenodd" d="M7.26796 13.1417L7.30636 13.1222C7.30636 13.1222 7.31596 12.9686 7.37818 12.9727C7.44026 12.9825 7.46944 13.0641 7.46354 13.0932C7.4597 13.1222 7.44422 13.1709 7.38202 13.165C7.30048 13.1669 7.26758 13.1417 7.26758 13.1417H7.26796Z" fill="#3F3824"/>
<path fill-rule="evenodd" clip-rule="evenodd" d="M7.09473 12.4901C7.09473 12.4901 7.13313 12.4765 7.18011 12.5231C7.21851 12.5231 7.38593 12.5037 7.43841 12.5367C7.49089 12.5697 7.50639 12.5988 7.50639 12.5988C7.50639 12.5988 7.31029 12.6415 7.20341 12.5988C7.09473 12.5619 7.09473 12.4901 7.09473 12.4901Z" fill="#2D2815"/>
<path fill-rule="evenodd" clip-rule="evenodd" d="M7.95976 12.5189C7.95976 12.5091 7.85492 12.4373 7.7442 12.4139C7.72476 12.4101 7.72078 12.4236 7.7058 12.4236C7.69608 12.4198 7.69224 12.3906 7.69224 12.3906L7.62926 12.4238C7.62926 12.4238 7.61954 12.4373 7.65256 12.4622C7.68162 12.4855 7.73026 12.5049 7.74382 12.5437C7.7574 12.5825 7.7574 12.5961 7.76328 12.6019C7.76712 12.6058 7.83508 12.6019 7.86812 12.5825C7.90114 12.563 7.96334 12.5313 7.95938 12.5185L7.95976 12.5189Z" fill="#82764F"/>
<path fill-rule="evenodd" clip-rule="evenodd" d="M6.97852 12.9118C6.97852 12.9118 6.99786 12.7779 7.12804 12.772C7.26192 12.7623 7.28726 12.8923 7.28726 12.8923L7.20956 12.97C7.20956 12.9681 7.15132 12.8866 6.97916 12.9118H6.97852Z" fill="#2D2816"/>
<path fill-rule="evenodd" clip-rule="evenodd" d="M7.82375 12.3367C7.82375 12.3367 7.75181 12.4144 7.59271 12.4377C7.57913 12.4183 7.54995 12.3795 7.59271 12.3174C7.63545 12.2553 7.68397 12.2359 7.73247 12.2552C7.77619 12.2623 7.81179 12.2941 7.82375 12.3367Z" fill="#574F35"/>
<path fill-rule="evenodd" clip-rule="evenodd" d="M8.11686 12.4303C8.12084 12.4108 8.10726 12.407 8.11686 12.3972C8.12646 12.3875 8.17908 12.3682 8.1888 12.3778C8.19264 12.3817 8.1888 12.3972 8.1888 12.4162C8.1888 12.4351 8.1888 12.4546 8.17908 12.4685C8.1655 12.488 8.12672 12.4977 8.10726 12.492C8.08782 12.4862 8.08398 12.4589 8.08398 12.4536C8.09358 12.4497 8.11686 12.44 8.11686 12.4303ZM8.44838 12.2206C8.44838 12.2109 8.48142 12.1914 8.50086 12.1914C8.52992 12.1914 8.52992 12.2147 8.5339 12.2206C8.5435 12.2244 8.5435 12.2166 8.55322 12.2342C8.56294 12.2517 8.57664 12.2827 8.56678 12.3021C8.55694 12.3216 8.51828 12.335 8.50868 12.3312C8.4951 12.3215 8.45236 12.2342 8.44838 12.2206Z" fill="#82764F"/>
<path fill-rule="evenodd" clip-rule="evenodd" d="M7.78027 12.4747C7.78027 12.4747 7.82301 12.4843 7.88125 12.533C7.86181 12.5465 7.83261 12.562 7.83261 12.562C7.83261 12.562 7.82877 12.5174 7.78027 12.4746V12.4747Z" fill="#6E6342"/>
<path fill-rule="evenodd" clip-rule="evenodd" d="M7.68513 12.0479C7.67539 12.0383 7.71419 12.015 7.73747 12.0189C7.76077 12.0227 7.77051 12.0383 7.79571 12.0421C7.82093 12.046 7.82491 12.0324 7.83411 12.0227C7.84333 12.013 7.87687 12.0189 7.88263 12.0227C7.88621 12.027 7.88947 12.0315 7.89235 12.0363C7.89317 12.0213 7.90019 12.0074 7.91169 11.9979C7.92677 11.9868 7.94611 11.9832 7.96417 11.9881C7.96801 12.0017 7.98747 12.0502 7.98363 12.0599C7.97979 12.0697 7.92155 12.0834 7.91169 12.0735C7.92141 12.0969 7.96417 12.1454 7.96993 12.155C7.97569 12.1646 7.92717 12.1881 7.90785 12.1842C7.88071 12.1823 7.71367 12.0852 7.68461 12.0483L7.68513 12.0479ZM7.93947 11.7256C7.93587 11.7158 7.92899 11.7076 7.92001 11.7023C7.90643 11.6985 7.86177 11.7023 7.86177 11.7256C7.86177 11.7489 7.90017 11.8792 7.94331 11.947C7.99195 12.015 8.02483 12.0712 8.05787 12.0868C8.07937 12.0966 8.10479 12.0881 8.11611 12.0674C8.11995 12.0576 8.12967 11.9858 8.12583 11.8169C8.12199 11.6479 8.11611 11.4848 8.10637 11.4751C8.09665 11.4654 8.05787 11.4655 8.04429 11.4848C8.03073 11.5042 7.94331 11.6965 7.93933 11.7256H7.93947Z" fill="#585136"/>
<path fill-rule="evenodd" clip-rule="evenodd" d="M7.7675 12.721C7.7675 12.721 7.69952 12.6783 7.63348 12.7075C7.5714 12.7366 7.57524 12.8512 7.57524 12.8512C7.6036 12.8623 7.6356 12.8587 7.66074 12.8415C7.7035 12.8124 7.75776 12.7639 7.7675 12.7212V12.721Z" fill="#574F35"/>
<path fill-rule="evenodd" clip-rule="evenodd" d="M7.89485 12.8731C7.89101 12.8347 7.85645 12.8347 7.85645 12.8149C7.86135 12.7953 7.87895 12.7817 7.89907 12.7818C7.91853 12.7818 7.93747 12.8051 7.96129 12.8202C7.98459 12.8338 8.01953 12.8586 8.02337 12.8882C8.02721 12.9178 7.98497 12.9988 7.93799 12.9988C7.89101 12.9988 7.90497 12.9114 7.89523 12.8726L7.89485 12.8731ZM8.26963 12.8206C8.26963 12.8206 8.19195 12.8439 8.19771 12.8206C8.20347 12.7973 8.22113 12.7916 8.24635 12.7916C8.25915 12.7782 8.27639 12.7698 8.29485 12.7681C8.30541 12.7676 8.31579 12.7711 8.32391 12.7779C8.32391 12.7779 8.37639 12.7546 8.39187 12.7681C8.40737 12.7817 8.39585 12.7817 8.40545 12.7973C8.41767 12.8147 8.42569 12.8346 8.42887 12.8556C8.42887 12.8711 8.37063 12.9041 8.32391 12.8983C8.26963 12.8867 8.27923 12.8304 8.26963 12.8206ZM8.72199 12.7332C8.72199 12.7332 8.74529 12.7468 8.72595 12.7624C8.71239 12.776 8.64443 12.8008 8.58605 12.8051C8.52781 12.8051 8.47547 12.8147 8.47547 12.7954C8.47547 12.7761 8.52397 12.7372 8.55303 12.7274C8.56483 12.7127 8.58275 12.7041 8.60167 12.7041C8.62497 12.7041 8.71611 12.6944 8.74145 12.6906C8.76475 12.6866 8.78419 12.7002 8.77051 12.7196C8.76475 12.7332 8.72199 12.7332 8.72199 12.7332ZM8.85601 12.1336C8.85601 12.1336 8.82683 12.1957 8.79393 12.1957C8.76091 12.1919 8.76091 12.1822 8.76091 12.1724C8.76091 12.1589 8.79393 12.1239 8.78995 12.1142C8.78035 12.1142 8.75693 12.1142 8.76091 12.0909C8.76091 12.0714 8.79393 12.0481 8.82299 12.0525C8.84493 12.0345 8.87227 12.0242 8.90067 12.0234C8.93371 12.0234 8.96275 12.033 8.96275 12.0525C8.96275 12.072 8.92434 12.1146 8.91026 12.1244C8.89478 12.1399 8.87533 12.15 8.85601 12.134V12.1336ZM8.41325 13.2812C8.41325 13.2812 8.37485 13.2851 8.37485 13.3045C8.37485 13.3142 8.38445 13.3142 8.39815 13.3084C8.40603 13.308 8.41385 13.3067 8.42145 13.3045C8.42529 13.3084 8.42529 13.3278 8.45447 13.3278C8.47843 13.3245 8.50153 13.3166 8.52243 13.3045C8.54573 13.2949 8.56519 13.285 8.56519 13.2661C8.55547 13.233 8.53601 13.2174 8.50695 13.2174C8.49205 13.2165 8.47721 13.2199 8.46419 13.2272C8.46419 13.2272 8.45447 13.2077 8.42145 13.2272C8.38843 13.2466 8.39227 13.2466 8.40199 13.2563C8.41939 13.2718 8.41363 13.2819 8.41363 13.2819L8.41325 13.2812ZM8.19387 13.4832C8.19387 13.4734 8.24237 13.454 8.25595 13.4599C8.26951 13.4637 8.30829 13.5374 8.30829 13.5452C8.30829 13.555 8.25979 13.5783 8.24033 13.5783C8.22087 13.5783 8.18797 13.5452 8.18797 13.5399C8.18797 13.536 8.21127 13.5303 8.21127 13.5263C8.21703 13.5167 8.19387 13.4933 8.19387 13.4835V13.4832ZM8.04027 13.1996C8.04999 13.1958 8.04999 13.1861 8.06355 13.1763C8.07217 13.1706 8.08295 13.1692 8.09275 13.1725C8.09967 13.1601 8.11179 13.1515 8.12577 13.1491C8.14907 13.1452 8.16851 13.1491 8.16417 13.1588C8.16417 13.188 8.18363 13.2073 8.18363 13.2306C8.18363 13.2539 8.17005 13.2831 8.12155 13.3025C8.07303 13.3161 8.00699 13.3161 7.99725 13.3123C7.98753 13.3084 7.97779 13.2695 7.98753 13.2501C7.99725 13.2306 8.02439 13.2094 8.04001 13.1996H8.04027Z" fill="#82764F"/>
<path fill-rule="evenodd" clip-rule="evenodd" d="M8.10235 13.2129C8.10235 13.2129 8.06933 13.2324 8.06933 13.2421C8.06641 13.2515 8.06511 13.2613 8.06549 13.2711C8.06549 13.2769 8.10825 13.2673 8.11401 13.2614C8.11593 13.2576 8.10235 13.223 8.10235 13.2129Z" fill="#6E6342"/>
<path fill-rule="evenodd" clip-rule="evenodd" d="M7.81325 13.1215C7.83257 13.1254 7.86559 13.1215 7.89081 13.1312C7.91027 13.1409 7.92383 13.1604 7.90439 13.1837C7.88493 13.207 7.86599 13.2419 7.82285 13.236C7.77433 13.2322 7.72775 13.207 7.72775 13.1875C7.72609 13.1627 7.73449 13.1382 7.75103 13.1196C7.77049 13.1041 7.78009 13.1138 7.81311 13.1215H7.81325Z" fill="#585136"/>
<path fill-rule="evenodd" clip-rule="evenodd" d="M7.78989 13.1426C7.78989 13.1426 7.72781 13.1911 7.71219 13.2145C7.69275 13.2378 7.59763 13.3581 7.56859 13.3833C7.57823 13.3663 7.58923 13.3501 7.60147 13.3348C7.56307 13.3594 7.53429 13.3964 7.51995 13.4397C7.49665 13.5116 7.65011 13.5504 7.75099 13.5796C7.85185 13.6088 7.89089 13.618 7.89089 13.618C7.85375 13.5622 7.82187 13.503 7.79565 13.4413C7.75725 13.3501 7.73741 13.3403 7.76263 13.2976C7.78209 13.2548 7.81127 13.2258 7.81127 13.1928C7.79963 13.162 7.78989 13.1426 7.78989 13.1426Z" fill="#574F35"/>
<path fill-rule="evenodd" clip-rule="evenodd" d="M5.57643 13.2949C5.59055 13.2975 5.60505 13.2975 5.61917 13.2949C5.64823 13.2909 5.95121 13.1797 6.26775 13.1997C6.50473 13.214 6.73959 13.2526 6.96869 13.3149C7.36677 13.4197 7.86187 13.6274 8.18225 13.746C8.26763 13.7789 8.35121 13.8372 8.41265 13.8604C8.65739 13.9556 8.66699 13.9556 8.81073 13.9808C8.97969 14.0041 9.15249 13.9478 9.33309 13.909C9.55441 13.8604 9.93303 13.8371 10.2651 13.7886C10.3724 13.7737 10.4783 13.7497 10.5816 13.7168C10.5816 13.7168 10.3176 13.9808 9.68445 14.0759C9.42857 14.1148 9.16851 14.1181 8.91173 14.0857C8.70973 14.0662 8.57585 14.037 8.47485 14.008C8.36029 13.9749 8.12529 13.8875 7.83601 13.816C7.63403 13.7635 7.40875 13.7247 7.15057 13.6762C6.51365 13.5596 5.82245 13.4257 5.57617 13.2957L5.57643 13.2949Z" fill="#252211"/>
<path fill-rule="evenodd" clip-rule="evenodd" d="M4.86183 12.0957C4.70823 12.2257 4.54529 12.35 4.38619 12.4703L3.90657 12.8389C3.74351 12.9592 3.58427 13.0835 3.42107 13.2039C3.25787 13.3244 3.09493 13.4388 2.92188 13.5495C3.07547 13.4195 3.23841 13.299 3.40149 13.1806C3.56455 13.0622 3.73365 12.9461 3.89095 12.8261L4.37057 12.457C4.53557 12.3367 4.69479 12.2124 4.86183 12.0959V12.0957ZM4.01333 13.4549C4.01333 13.4549 4.18613 13.3112 4.40167 13.1093C4.66959 12.859 4.99777 12.5384 5.10261 12.4803L4.01319 13.4551L4.01333 13.4549Z" fill="#CFB66C"/>
<path fill-rule="evenodd" clip-rule="evenodd" d="M4.01367 13.4533C4.09917 13.3679 4.19043 13.2845 4.28169 13.2028L4.42147 13.0825C4.46423 13.0441 4.51287 13.001 4.55549 12.9582C4.64087 12.8728 4.72445 12.7814 4.80983 12.6941C4.85215 12.6502 4.89689 12.6087 4.94385 12.5698C4.96731 12.5491 4.99339 12.5314 5.02141 12.5174C5.04483 12.5038 5.07005 12.479 5.10295 12.4746C5.08361 12.5038 5.06033 12.5174 5.04087 12.5426C5.01757 12.562 4.99811 12.5853 4.97879 12.6047C4.93603 12.6474 4.88753 12.6862 4.84477 12.7251C4.75351 12.8028 4.65841 12.8787 4.56713 12.96C4.47587 13.0413 4.39049 13.129 4.29911 13.2105C4.20017 13.2941 4.10889 13.3756 4.01367 13.4537V13.4533ZM5.17489 12.6766C5.17489 12.6766 4.54193 13.2961 4.41175 13.397L5.17489 12.6766Z" fill="#CFB66C"/>
<path fill-rule="evenodd" clip-rule="evenodd" d="M5.17525 12.6777C5.11831 12.7437 5.05727 12.8059 4.99247 12.8641L4.80047 13.0466C4.73839 13.1087 4.68001 13.1709 4.61409 13.233C4.54613 13.2912 4.48405 13.3482 4.41211 13.402L4.59849 13.2194C4.66069 13.1574 4.72865 13.105 4.79471 13.0428L4.98107 12.8603C5.04507 12.7963 5.10729 12.7341 5.17525 12.6777ZM5.20431 13.0136C5.14597 13.1764 5.07721 13.3354 4.99849 13.4894C4.83541 13.8157 4.59081 14.2233 4.48393 14.4312L5.20431 13.0136Z" fill="#CFB66C"/>
<path fill-rule="evenodd" clip-rule="evenodd" d="M5.20381 13.0137C5.20381 13.0855 5.18435 13.1477 5.16105 13.2098C5.13835 13.2719 5.11245 13.3328 5.08349 13.3923C5.05431 13.4505 5.02129 13.5127 4.98825 13.5691C4.95523 13.6254 4.91645 13.6835 4.88727 13.7419L4.69117 14.0875C4.62321 14.2027 4.55715 14.3185 4.48535 14.4292C4.53385 14.3049 4.59991 14.1885 4.66211 14.0739C4.73009 13.9587 4.79217 13.8435 4.85411 13.7243C4.88437 13.6649 4.91157 13.6041 4.93565 13.5419C4.96471 13.4797 4.99377 13.4215 5.01719 13.3652C5.04625 13.3031 5.06953 13.2447 5.09873 13.1885C5.13161 13.1282 5.15889 13.07 5.20355 13.0137H5.20381Z" fill="#CFB66C"/>
<path fill-rule="evenodd" clip-rule="evenodd" d="M5.89485 14.6055C5.89485 14.6055 5.70285 14.8598 5.72205 15.1821C5.77439 15.0133 5.84045 14.755 5.89485 14.6055ZM6.07737 14.8604C6.07737 14.8604 6.00941 15.5516 5.95309 15.8915C6.03269 15.4986 6.04819 15.5317 6.07737 14.8604ZM7.34917 15.9323C7.34917 15.9323 7.06181 16.7771 7.05593 17.0119C7.11813 16.7705 7.23845 16.2773 7.34917 15.9317V15.9323Z" fill="#DEC270"/>
<path fill-rule="evenodd" clip-rule="evenodd" d="M8.02148 14.5527C8.02148 14.5527 8.48754 15.3216 8.8371 15.9779C8.74252 15.6476 8.52492 15.042 8.02148 14.5527Z" fill="#CBAF59"/>
<path fill-rule="evenodd" clip-rule="evenodd" d="M9.27344 15.6855C9.52932 16.1379 9.76006 16.6039 9.96464 17.0816C9.92584 16.7515 9.82088 16.1865 9.27344 15.6855Z" fill="#E3C677"/>
<path fill-rule="evenodd" clip-rule="evenodd" d="M12.9557 16.8201C13.0333 16.7716 13.1868 16.5074 13.3208 16.4415C13.4547 16.3735 13.5557 16.36 13.6761 16.226C13.7964 16.086 13.8297 16.0007 14.0935 15.8901C14.4625 15.7307 14.2087 15.5249 14.2087 15.5249C14.2494 15.485 14.2928 15.448 14.3388 15.4143C14.434 15.3425 14.5446 15.2551 14.535 15.1016C14.5214 14.8434 14.4729 14.4687 14.2612 14.2512C14.467 14.2084 14.8611 14.1794 15.106 14.1173C15.3894 14.0454 15.5196 13.9444 15.5196 13.9444C15.5196 13.9444 15.3565 13.6667 15.6206 13.3872C15.8846 13.1076 16.1002 12.9406 16.2594 12.6279C16.0769 12.6046 15.7986 12.5076 15.0885 12.7774C15.1268 12.7954 15.1638 12.8162 15.1992 12.8395C15.1992 12.8395 14.7623 12.9599 14.6031 13.0939C14.3253 13.3288 14.2904 13.5211 13.9895 13.6648C13.6885 13.8086 13.3856 13.7697 13.1352 13.8861C12.8848 14.0026 12.8478 14.1017 12.7564 14.1444C12.7759 14.1677 12.7526 14.2065 12.7895 14.2395C12.7662 14.2726 12.6302 14.4939 12.4924 14.4939C12.5059 14.5464 12.6224 14.5851 12.6224 14.5851C12.6224 14.5851 12.537 14.6473 12.3196 14.6628C12.4302 14.778 12.5351 14.9036 12.8244 15.0861C12.8011 15.1346 12.704 15.2066 12.7429 15.2978C12.7856 15.3891 12.8965 15.5134 13.339 15.6144C13.1137 15.624 12.8497 15.6765 12.4942 15.628C12.1388 15.5852 12.0806 15.56 11.8612 15.6144C11.8845 15.6377 11.9466 15.6377 12.001 15.6997C11.9427 15.7036 11.5777 15.657 11.4534 15.8202C11.3233 15.989 11.267 16.2668 11.2768 16.4532C11.2088 16.4862 11.1427 16.5444 11.1758 16.6649C11.2088 16.7853 11.3816 16.8241 11.4923 16.8997C11.6029 16.9813 11.6126 17.0103 11.7176 16.991C11.8282 16.9677 11.9913 16.8571 12.0865 16.8571C12.1817 16.8571 12.2496 16.9289 12.2496 16.9289C12.2496 16.9289 12.5079 16.8046 12.5331 16.8279C12.5564 16.8512 12.5369 17.0007 12.5621 17.024C12.5877 17.0416 12.8787 16.8688 12.9564 16.8201H12.9557Z" fill="#ECD592"/>
<path fill-rule="evenodd" clip-rule="evenodd" d="M18.6001 9.04854C17.3866 5.9146 14.3865 5.33398 14.3865 5.33398H5.82727L5.86029 8.52618H7.56487V15.6544H5.82715V18.8408H14.1496C16.1553 18.8408 17.7631 16.8252 17.7631 16.8252C20.3379 13.1709 18.6 9.04854 18.6 9.04854H18.6001ZM14.1942 14.6776C14.1942 14.6776 13.5414 15.6194 12.8312 15.6194H11.4104L11.3767 8.53398H13.2001C13.2001 8.53398 14.0449 8.71062 14.6351 10.3824C14.6351 10.3824 15.4175 12.776 14.1942 14.6776Z" fill="white" fill-opacity="0.8"/>
</g>
<defs>
<clipPath id="clip0_2068_2018">
<rect width="24" height="24" fill="white"/>
</clipPath>
</defs>
</svg>
