<svg width="600" height="294" fill="none" xmlns="http://www.w3.org/2000/svg"><path opacity=".4" fill-rule="evenodd" clip-rule="evenodd" d="M600 0H0v294h600V0zM225 48c-13.255 0-24 10.745-24 24v151c0 13.255 10.745 24 24 24h151c13.255 0 24-10.745 24-24V72c0-13.255-10.745-24-24-24H225z" fill="#000"/><path fill-rule="evenodd" clip-rule="evenodd" d="M230.623 46H223c-13.255 0-24 10.745-24 24v6.093h5V70c0-10.493 8.507-19 19-19h7.623v-5zm0 198H223c-9.083 0-16.677-6.373-18.555-14.892h-5.095C201.299 240.406 211.146 249 223 249h7.623v-5zm139.754 5v-5H378c9.083 0 16.677-6.373 18.555-14.892h5.095C399.701 240.406 389.854 249 378 249h-7.623zm0-198v-5H378c13.255 0 24 10.745 24 24v6.093h-5V70c0-10.493-8.507-19-19-19h-7.623z" fill="#fff"/></svg>